<svg width="700" height="582" viewBox="0 0 700 582" fill="none" xmlns="http://www.w3.org/2000/svg">
<g filter="url(#filter0_d_144_362)">
<g filter="url(#filter1_di_144_362)">
<path d="M428.395 295.928C428.145 295.928 427.895 295.928 427.645 295.928C427.605 304.61 426.441 313.266 424.138 321.609C415.524 354.931 385.237 383.674 350.02 383.124C305.276 383.544 271.896 338.692 273.02 295.928C271.896 253.164 305.276 208.312 350.02 208.732C385.237 208.182 415.524 236.925 424.138 270.247C426.441 278.59 427.605 287.246 427.645 295.928C427.895 295.928 428.145 295.928 428.395 295.928C428.438 287.181 427.345 278.437 425.091 269.989C416.698 236.271 386.146 206.675 350.02 207.045C304.103 206.409 269.851 252.324 271.02 295.928C271.02 295.928 271.02 295.928 271.02 295.928C269.851 339.532 304.103 385.447 350.02 384.811C386.146 385.181 416.698 355.585 425.091 321.867C427.345 313.419 428.438 304.675 428.395 295.928ZM427.645 295.928H428.395H427.645Z" fill="#3B82F6"/>
</g>
<g filter="url(#filter2_d_144_362)">
<path d="M305.359 287.259C303.839 287.259 302.479 286.989 301.279 286.449C300.079 285.909 299.129 285.099 298.429 284.019C297.749 282.919 297.409 281.549 297.409 279.909V279.279H299.899V279.909C299.899 281.649 300.409 282.949 301.429 283.809C302.449 284.649 303.759 285.069 305.359 285.069C306.999 285.069 308.249 284.699 309.109 283.959C309.969 283.219 310.399 282.289 310.399 281.169C310.399 280.389 310.199 279.769 309.799 279.309C309.419 278.849 308.879 278.479 308.179 278.199C307.479 277.899 306.659 277.639 305.719 277.419L304.159 277.029C302.939 276.709 301.859 276.319 300.919 275.859C299.979 275.399 299.239 274.799 298.699 274.059C298.179 273.299 297.919 272.329 297.919 271.149C297.919 269.969 298.209 268.949 298.789 268.089C299.389 267.229 300.219 266.569 301.279 266.109C302.359 265.649 303.599 265.419 304.999 265.419C306.419 265.419 307.689 265.669 308.809 266.169C309.949 266.649 310.839 267.369 311.479 268.329C312.139 269.269 312.469 270.459 312.469 271.899V273.159H309.979V271.899C309.979 270.879 309.759 270.059 309.319 269.439C308.899 268.819 308.309 268.359 307.549 268.059C306.809 267.759 305.959 267.609 304.999 267.609C303.619 267.609 302.509 267.919 301.669 268.539C300.829 269.139 300.409 269.999 300.409 271.119C300.409 271.859 300.589 272.459 300.949 272.919C301.309 273.379 301.819 273.759 302.479 274.059C303.139 274.339 303.929 274.589 304.849 274.809L306.409 275.199C307.629 275.459 308.719 275.819 309.679 276.279C310.659 276.719 311.439 277.329 312.019 278.109C312.599 278.869 312.889 279.869 312.889 281.109C312.889 282.349 312.579 283.429 311.959 284.349C311.339 285.269 310.459 285.989 309.319 286.509C308.199 287.009 306.879 287.259 305.359 287.259ZM318.628 292.839V290.739H327.028C327.608 290.739 327.898 290.439 327.898 289.839V284.499H327.478C327.278 284.919 326.968 285.339 326.548 285.759C326.148 286.159 325.618 286.489 324.958 286.749C324.298 286.989 323.468 287.109 322.468 287.109C321.408 287.109 320.428 286.879 319.528 286.419C318.648 285.959 317.948 285.279 317.428 284.379C316.928 283.479 316.678 282.379 316.678 281.079V272.169H319.048V280.899C319.048 282.339 319.408 283.389 320.128 284.049C320.868 284.709 321.858 285.039 323.098 285.039C324.498 285.039 325.648 284.579 326.548 283.659C327.448 282.739 327.898 281.369 327.898 279.549V272.169H330.268V290.259C330.268 291.059 330.038 291.689 329.578 292.149C329.138 292.609 328.488 292.839 327.628 292.839H318.628ZM341.137 287.259C339.317 287.259 337.777 286.839 336.517 285.999C335.277 285.159 334.527 283.829 334.267 282.009L336.517 281.499C336.677 282.459 336.977 283.219 337.417 283.779C337.857 284.319 338.397 284.709 339.037 284.949C339.697 285.169 340.397 285.279 341.137 285.279C342.237 285.279 343.107 285.059 343.747 284.619C344.387 284.179 344.707 283.589 344.707 282.849C344.707 282.089 344.397 281.559 343.777 281.259C343.177 280.939 342.347 280.679 341.287 280.479L340.057 280.269C339.117 280.109 338.257 279.859 337.477 279.519C336.697 279.179 336.077 278.719 335.617 278.139C335.157 277.559 334.927 276.829 334.927 275.949C334.927 274.629 335.437 273.599 336.457 272.859C337.477 272.119 338.827 271.749 340.507 271.749C342.167 271.749 343.507 272.129 344.527 272.889C345.567 273.629 346.237 274.679 346.537 276.039L344.317 276.609C344.137 275.549 343.707 274.809 343.027 274.389C342.347 273.949 341.507 273.729 340.507 273.729C339.507 273.729 338.717 273.919 338.137 274.299C337.557 274.659 337.267 275.199 337.267 275.919C337.267 276.619 337.537 277.139 338.077 277.479C338.637 277.799 339.377 278.039 340.297 278.199L341.527 278.409C342.567 278.589 343.497 278.839 344.317 279.159C345.157 279.459 345.817 279.899 346.297 280.479C346.797 281.059 347.047 281.819 347.047 282.759C347.047 284.199 346.507 285.309 345.427 286.089C344.367 286.869 342.937 287.259 341.137 287.259ZM356.125 286.839C355.285 286.839 354.635 286.609 354.175 286.149C353.735 285.689 353.515 285.059 353.515 284.259V274.239H349.105V272.169H353.515V266.949H355.885V272.169H360.685V274.239H355.885V283.899C355.885 284.499 356.175 284.799 356.755 284.799H360.025V286.839H356.125ZM370.716 287.259C369.236 287.259 367.936 286.949 366.816 286.329C365.696 285.689 364.826 284.799 364.206 283.659C363.586 282.519 363.276 281.199 363.276 279.699V279.339C363.276 277.819 363.586 276.489 364.206 275.349C364.826 274.209 365.686 273.329 366.786 272.709C367.886 272.069 369.146 271.749 370.566 271.749C371.946 271.749 373.166 272.049 374.226 272.649C375.286 273.229 376.116 274.069 376.716 275.169C377.316 276.269 377.616 277.559 377.616 279.039V280.119H365.646C365.706 281.699 366.216 282.939 367.176 283.839C368.136 284.719 369.336 285.159 370.776 285.159C372.036 285.159 373.006 284.869 373.686 284.289C374.366 283.709 374.886 283.019 375.246 282.219L377.286 283.209C376.986 283.829 376.566 284.449 376.026 285.069C375.506 285.689 374.816 286.209 373.956 286.629C373.116 287.049 372.036 287.259 370.716 287.259ZM365.676 278.169H375.216C375.136 276.809 374.666 275.749 373.806 274.989C372.966 274.229 371.886 273.849 370.566 273.849C369.226 273.849 368.126 274.229 367.266 274.989C366.406 275.749 365.876 276.809 365.676 278.169ZM381.75 286.839V272.169H384.06V273.999H384.48C384.76 273.479 385.22 272.999 385.86 272.559C386.5 272.119 387.4 271.899 388.56 271.899C389.7 271.899 390.62 272.149 391.32 272.649C392.04 273.149 392.56 273.759 392.88 274.479H393.3C393.64 273.759 394.15 273.149 394.83 272.649C395.53 272.149 396.5 271.899 397.74 271.899C398.72 271.899 399.58 272.099 400.32 272.499C401.06 272.899 401.64 273.479 402.06 274.239C402.5 274.979 402.72 275.869 402.72 276.909V286.839H400.35V277.119C400.35 276.139 400.06 275.369 399.48 274.809C398.92 274.229 398.13 273.939 397.11 273.939C396.03 273.939 395.14 274.289 394.44 274.989C393.76 275.689 393.42 276.699 393.42 278.019V286.839H391.05V277.119C391.05 276.139 390.76 275.369 390.18 274.809C389.62 274.229 388.83 273.939 387.81 273.939C386.73 273.939 385.84 274.289 385.14 274.989C384.46 275.689 384.12 276.699 384.12 278.019V286.839H381.75ZM327.346 325.259C324.846 325.259 322.856 324.539 321.376 323.099C319.896 321.639 319.156 319.519 319.156 316.739V311.939C319.156 309.159 319.896 307.049 321.376 305.609C322.856 304.149 324.846 303.419 327.346 303.419C329.826 303.419 331.726 304.109 333.046 305.489C334.386 306.869 335.056 308.759 335.056 311.159V311.309H332.566V311.069C332.566 309.489 332.136 308.199 331.276 307.199C330.436 306.179 329.126 305.669 327.346 305.669C325.566 305.669 324.176 306.219 323.176 307.319C322.176 308.399 321.676 309.919 321.676 311.879V316.799C321.676 318.759 322.176 320.289 323.176 321.389C324.176 322.469 325.566 323.009 327.346 323.009C329.126 323.009 330.436 322.509 331.276 321.509C332.136 320.489 332.566 319.189 332.566 317.609V317.129H335.056V317.519C335.056 319.919 334.386 321.809 333.046 323.189C331.726 324.569 329.826 325.259 327.346 325.259ZM345.874 325.259C344.394 325.259 343.084 324.949 341.944 324.329C340.824 323.709 339.944 322.839 339.304 321.719C338.684 320.579 338.374 319.239 338.374 317.699V317.309C338.374 315.789 338.684 314.459 339.304 313.319C339.944 312.179 340.824 311.299 341.944 310.679C343.084 310.059 344.394 309.749 345.874 309.749C347.354 309.749 348.654 310.059 349.774 310.679C350.914 311.299 351.794 312.179 352.414 313.319C353.054 314.459 353.374 315.789 353.374 317.309V317.699C353.374 319.239 353.054 320.579 352.414 321.719C351.794 322.839 350.914 323.709 349.774 324.329C348.654 324.949 347.354 325.259 345.874 325.259ZM345.874 323.129C347.434 323.129 348.674 322.639 349.594 321.659C350.534 320.659 351.004 319.319 351.004 317.639V317.369C351.004 315.689 350.534 314.359 349.594 313.379C348.674 312.379 347.434 311.879 345.874 311.879C344.334 311.879 343.094 312.379 342.154 313.379C341.214 314.359 340.744 315.689 340.744 317.369V317.639C340.744 319.319 341.214 320.659 342.154 321.659C343.094 322.639 344.334 323.129 345.874 323.129ZM357.639 324.839V310.169H359.949V311.969H360.369C360.629 311.329 361.029 310.859 361.569 310.559C362.109 310.259 362.819 310.109 363.699 310.109H365.439V312.269H363.549C362.489 312.269 361.629 312.569 360.969 313.169C360.329 313.749 360.009 314.659 360.009 315.899V324.839H357.639ZM375.14 325.259C373.66 325.259 372.36 324.949 371.24 324.329C370.12 323.689 369.25 322.799 368.63 321.659C368.01 320.519 367.7 319.199 367.7 317.699V317.339C367.7 315.819 368.01 314.489 368.63 313.349C369.25 312.209 370.11 311.329 371.21 310.709C372.31 310.069 373.57 309.749 374.99 309.749C376.37 309.749 377.59 310.049 378.65 310.649C379.71 311.229 380.54 312.069 381.14 313.169C381.74 314.269 382.04 315.559 382.04 317.039V318.119H370.07C370.13 319.699 370.64 320.939 371.6 321.839C372.56 322.719 373.76 323.159 375.2 323.159C376.46 323.159 377.43 322.869 378.11 322.289C378.79 321.709 379.31 321.019 379.67 320.219L381.71 321.209C381.41 321.829 380.99 322.449 380.45 323.069C379.93 323.689 379.24 324.209 378.38 324.629C377.54 325.049 376.46 325.259 375.14 325.259ZM370.1 316.169H379.64C379.56 314.809 379.09 313.749 378.23 312.989C377.39 312.229 376.31 311.849 374.99 311.849C373.65 311.849 372.55 312.229 371.69 312.989C370.83 313.749 370.3 314.809 370.1 316.169Z" fill="white"/>
</g>
</g>
<g filter="url(#filter3_d_144_362)">
<g filter="url(#filter4_d_144_362)">
<path d="M400.395 65.1063C400.145 65.1063 399.895 65.1063 399.645 65.1063C399.604 70.9397 398.809 76.7514 397.251 82.3492C391.417 104.713 371.075 123.92 347.52 123.52C317.596 123.768 295.271 93.7527 296.02 65.1063C295.271 36.4599 317.596 6.44491 347.52 6.69263C371.075 6.29308 391.417 25.4995 397.251 47.8634C398.809 53.4613 399.604 59.2729 399.645 65.1063C399.895 65.1063 400.145 65.1063 400.395 65.1063C400.438 59.2086 399.713 53.3089 398.204 47.6049C392.592 24.8458 371.984 4.78557 347.52 5.00513C316.423 4.54223 293.226 35.62 294.02 65.1063C293.226 94.5926 316.423 125.67 347.52 125.207C371.984 125.427 392.592 105.367 398.204 82.6077C399.713 76.9037 400.438 71.004 400.395 65.1063ZM399.645 65.1063H400.395H399.645Z" fill="#3B82F6"/>
</g>
<g filter="url(#filter5_d_144_362)">
<path d="M316.158 70.4825V59.9825H322.503V61.1225H317.418V64.6475H322.098V65.7875H317.418V70.4825H316.158ZM324.304 70.4825V63.1475H325.459V64.0475H325.669C325.799 63.7275 325.999 63.4925 326.269 63.3425C326.539 63.1925 326.894 63.1175 327.334 63.1175H328.204V64.1975H327.259C326.729 64.1975 326.299 64.3475 325.969 64.6475C325.649 64.9375 325.489 65.3925 325.489 66.0125V70.4825H324.304ZM333.085 70.6925C332.345 70.6925 331.69 70.5375 331.12 70.2275C330.56 69.9175 330.12 69.4825 329.8 68.9225C329.49 68.3525 329.335 67.6825 329.335 66.9125V66.7175C329.335 65.9575 329.49 65.2925 329.8 64.7225C330.12 64.1525 330.56 63.7125 331.12 63.4025C331.69 63.0925 332.345 62.9375 333.085 62.9375C333.825 62.9375 334.475 63.0925 335.035 63.4025C335.605 63.7125 336.045 64.1525 336.355 64.7225C336.675 65.2925 336.835 65.9575 336.835 66.7175V66.9125C336.835 67.6825 336.675 68.3525 336.355 68.9225C336.045 69.4825 335.605 69.9175 335.035 70.2275C334.475 70.5375 333.825 70.6925 333.085 70.6925ZM333.085 69.6275C333.865 69.6275 334.485 69.3825 334.945 68.8925C335.415 68.3925 335.65 67.7225 335.65 66.8825V66.7475C335.65 65.9075 335.415 65.2425 334.945 64.7525C334.485 64.2525 333.865 64.0025 333.085 64.0025C332.315 64.0025 331.695 64.2525 331.225 64.7525C330.755 65.2425 330.52 65.9075 330.52 66.7475V66.8825C330.52 67.7225 330.755 68.3925 331.225 68.8925C331.695 69.3825 332.315 69.6275 333.085 69.6275ZM338.967 70.4825V63.1475H340.122V64.3925H340.332C340.492 64.0425 340.762 63.7275 341.142 63.4475C341.532 63.1575 342.102 63.0125 342.852 63.0125C343.402 63.0125 343.892 63.1275 344.322 63.3575C344.762 63.5875 345.112 63.9275 345.372 64.3775C345.632 64.8275 345.762 65.3825 345.762 66.0425V70.4825H344.577V66.1325C344.577 65.4025 344.392 64.8725 344.022 64.5425C343.662 64.2125 343.172 64.0475 342.552 64.0475C341.842 64.0475 341.262 64.2775 340.812 64.7375C340.372 65.1975 340.152 65.8825 340.152 66.7925V70.4825H338.967ZM350.661 70.4825C350.241 70.4825 349.916 70.3675 349.686 70.1375C349.466 69.9075 349.356 69.5925 349.356 69.1925V64.1825H347.151V63.1475H349.356V60.5375H350.541V63.1475H352.941V64.1825H350.541V69.0125C350.541 69.3125 350.686 69.4625 350.976 69.4625H352.611V70.4825H350.661ZM357.957 70.6925C357.217 70.6925 356.567 70.5375 356.007 70.2275C355.447 69.9075 355.012 69.4625 354.702 68.8925C354.392 68.3225 354.237 67.6625 354.237 66.9125V66.7325C354.237 65.9725 354.392 65.3075 354.702 64.7375C355.012 64.1675 355.442 63.7275 355.992 63.4175C356.542 63.0975 357.172 62.9375 357.882 62.9375C358.572 62.9375 359.182 63.0875 359.712 63.3875C360.242 63.6775 360.657 64.0975 360.957 64.6475C361.257 65.1975 361.407 65.8425 361.407 66.5825V67.1225H355.422C355.452 67.9125 355.707 68.5325 356.187 68.9825C356.667 69.4225 357.267 69.6425 357.987 69.6425C358.617 69.6425 359.102 69.4975 359.442 69.2075C359.782 68.9175 360.042 68.5725 360.222 68.1725L361.242 68.6675C361.092 68.9775 360.882 69.2875 360.612 69.5975C360.352 69.9075 360.007 70.1675 359.577 70.3775C359.157 70.5875 358.617 70.6925 357.957 70.6925ZM355.437 66.1475H360.207C360.167 65.4675 359.932 64.9375 359.502 64.5575C359.082 64.1775 358.542 63.9875 357.882 63.9875C357.212 63.9875 356.662 64.1775 356.232 64.5575C355.802 64.9375 355.537 65.4675 355.437 66.1475ZM363.474 70.4825V63.1475H364.629V64.3925H364.839C364.999 64.0425 365.269 63.7275 365.649 63.4475C366.039 63.1575 366.609 63.0125 367.359 63.0125C367.909 63.0125 368.399 63.1275 368.829 63.3575C369.269 63.5875 369.619 63.9275 369.879 64.3775C370.139 64.8275 370.269 65.3825 370.269 66.0425V70.4825H369.084V66.1325C369.084 65.4025 368.899 64.8725 368.529 64.5425C368.169 64.2125 367.679 64.0475 367.059 64.0475C366.349 64.0475 365.769 64.2775 365.319 64.7375C364.879 65.1975 364.659 65.8825 364.659 66.7925V70.4825H363.474ZM375.778 70.6925C375.148 70.6925 374.568 70.5425 374.038 70.2425C373.508 69.9425 373.088 69.5075 372.778 68.9375C372.468 68.3675 372.313 67.6925 372.313 66.9125V66.7175C372.313 65.9375 372.468 65.2675 372.778 64.7075C373.088 64.1375 373.503 63.7025 374.023 63.4025C374.553 63.0925 375.138 62.9375 375.778 62.9375C376.288 62.9375 376.718 63.0075 377.068 63.1475C377.428 63.2775 377.718 63.4475 377.938 63.6575C378.158 63.8575 378.328 64.0725 378.448 64.3025H378.658V59.9825H379.843V70.4825H378.688V69.2675H378.478C378.278 69.6375 377.968 69.9675 377.548 70.2575C377.128 70.5475 376.538 70.6925 375.778 70.6925ZM376.093 69.6425C376.853 69.6425 377.468 69.4025 377.938 68.9225C378.418 68.4325 378.658 67.7525 378.658 66.8825V66.7475C378.658 65.8775 378.418 65.2025 377.938 64.7225C377.468 64.2325 376.853 63.9875 376.093 63.9875C375.343 63.9875 374.723 64.2325 374.233 64.7225C373.753 65.2025 373.513 65.8775 373.513 66.7475V66.8825C373.513 67.7525 373.753 68.4325 374.233 68.9225C374.723 69.4025 375.343 69.6425 376.093 69.6425Z" fill="white"/>
</g>
</g>
<g filter="url(#filter6_d_144_362)">
<g filter="url(#filter7_d_144_362)">
<path d="M626.395 124.928C626.145 124.928 625.895 124.928 625.645 124.928C625.604 130.761 624.809 136.573 623.251 142.171C617.417 164.535 597.075 183.741 573.52 183.342C543.596 183.589 521.271 153.574 522.02 124.928C521.271 96.2817 543.596 66.2667 573.52 66.5144C597.075 66.1149 617.417 85.3213 623.251 107.685C624.809 113.283 625.604 119.095 625.645 124.928C625.895 124.928 626.145 124.928 626.395 124.928C626.438 119.03 625.713 113.131 624.204 107.427C618.592 84.6676 597.984 64.6073 573.52 64.8269C542.423 64.364 519.226 95.4418 520.02 124.928C519.226 154.414 542.423 185.492 573.52 185.029C597.984 185.249 618.592 165.189 624.204 142.43C625.713 136.726 626.438 130.826 626.395 124.928ZM625.645 124.928H626.395H625.645Z" fill="#3B82F6"/>
</g>
<g filter="url(#filter8_d_144_362)">
<path d="M563.335 130.304L566.575 119.804H568.795L572.035 130.304H570.73L569.92 127.649H565.45L564.64 130.304H563.335ZM565.765 126.509H569.59L567.79 120.569H567.58L565.765 126.509ZM573.609 130.304V119.804H577.629C578.259 119.804 578.819 119.929 579.309 120.179C579.809 120.419 580.204 120.764 580.494 121.214C580.784 121.664 580.929 122.209 580.929 122.849V123.044C580.929 123.674 580.779 124.219 580.479 124.679C580.189 125.129 579.794 125.474 579.294 125.714C578.794 125.954 578.239 126.074 577.629 126.074H574.869V130.304H573.609ZM574.869 124.934H577.494C578.164 124.934 578.694 124.769 579.084 124.439C579.474 124.099 579.669 123.624 579.669 123.014V122.864C579.669 122.254 579.474 121.784 579.084 121.454C578.704 121.114 578.174 120.944 577.494 120.944H574.869V124.934ZM582.617 130.304V119.804H583.877V130.304H582.617Z" fill="white"/>
</g>
</g>
<g filter="url(#filter9_d_144_362)">
<g filter="url(#filter10_d_144_362)">
<path d="M626.395 483.859C626.145 483.859 625.895 483.859 625.645 483.859C625.604 489.692 624.809 495.504 623.251 501.102C617.417 523.466 597.075 542.672 573.52 542.272C543.596 542.52 521.271 512.505 522.02 483.859C521.271 455.212 543.596 425.197 573.52 425.445C597.075 425.046 617.417 444.252 623.251 466.616C624.809 472.214 625.604 478.025 625.645 483.859C625.895 483.859 626.145 483.859 626.395 483.859C626.438 477.961 625.713 472.061 624.204 466.357C618.592 443.598 597.984 423.538 573.52 423.758C542.423 423.295 519.226 454.372 520.02 483.859C519.226 513.345 542.423 544.423 573.52 543.96C597.984 544.179 618.592 524.119 624.204 501.36C625.713 495.656 626.438 489.756 626.395 483.859ZM625.645 483.859H626.395H625.645Z" fill="#3B82F6"/>
</g>
<g filter="url(#filter11_d_144_362)">
<path d="M530.082 489.235V488.11H531.552V479.86H530.082V478.735H534.177C535.557 478.735 536.622 479.085 537.372 479.785C538.132 480.485 538.512 481.56 538.512 483.01V484.96C538.512 486.42 538.132 487.5 537.372 488.2C536.622 488.89 535.557 489.235 534.177 489.235H530.082ZM532.812 488.095H534.177C535.197 488.095 535.967 487.845 536.487 487.345C537.007 486.845 537.267 486.07 537.267 485.02V482.965C537.267 481.895 537.007 481.115 536.487 480.625C535.967 480.135 535.197 479.89 534.177 479.89H532.812V488.095ZM543.928 489.445C543.188 489.445 542.538 489.29 541.978 488.98C541.418 488.66 540.983 488.215 540.673 487.645C540.363 487.075 540.208 486.415 540.208 485.665V485.485C540.208 484.725 540.363 484.06 540.673 483.49C540.983 482.92 541.413 482.48 541.963 482.17C542.513 481.85 543.143 481.69 543.853 481.69C544.543 481.69 545.153 481.84 545.683 482.14C546.213 482.43 546.628 482.85 546.928 483.4C547.228 483.95 547.378 484.595 547.378 485.335V485.875H541.393C541.423 486.665 541.678 487.285 542.158 487.735C542.638 488.175 543.238 488.395 543.958 488.395C544.588 488.395 545.073 488.25 545.413 487.96C545.753 487.67 546.013 487.325 546.193 486.925L547.213 487.42C547.063 487.73 546.853 488.04 546.583 488.35C546.323 488.66 545.978 488.92 545.548 489.13C545.128 489.34 544.588 489.445 543.928 489.445ZM541.408 484.9H546.178C546.138 484.22 545.903 483.69 545.473 483.31C545.053 482.93 544.513 482.74 543.853 482.74C543.183 482.74 542.633 482.93 542.203 483.31C541.773 483.69 541.508 484.22 541.408 484.9ZM549.445 492.235V481.9H550.6V483.115H550.81C551 482.745 551.305 482.415 551.725 482.125C552.155 481.835 552.75 481.69 553.51 481.69C554.14 481.69 554.715 481.845 555.235 482.155C555.765 482.455 556.185 482.885 556.495 483.445C556.815 484.005 556.975 484.68 556.975 485.47V485.665C556.975 486.445 556.82 487.12 556.51 487.69C556.2 488.26 555.78 488.695 555.25 488.995C554.73 489.295 554.15 489.445 553.51 489.445C553 489.445 552.565 489.375 552.205 489.235C551.855 489.105 551.57 488.935 551.35 488.725C551.13 488.515 550.96 488.3 550.84 488.08H550.63V492.235H549.445ZM553.195 488.395C553.955 488.395 554.57 488.155 555.04 487.675C555.52 487.185 555.76 486.505 555.76 485.635V485.5C555.76 484.63 555.52 483.955 555.04 483.475C554.57 482.985 553.955 482.74 553.195 482.74C552.445 482.74 551.825 482.985 551.335 483.475C550.855 483.955 550.615 484.63 550.615 485.5V485.635C550.615 486.505 550.855 487.185 551.335 487.675C551.825 488.155 552.445 488.395 553.195 488.395ZM559.099 489.235V478.735H560.284V489.235H559.099ZM566.165 489.445C565.425 489.445 564.77 489.29 564.2 488.98C563.64 488.67 563.2 488.235 562.88 487.675C562.57 487.105 562.415 486.435 562.415 485.665V485.47C562.415 484.71 562.57 484.045 562.88 483.475C563.2 482.905 563.64 482.465 564.2 482.155C564.77 481.845 565.425 481.69 566.165 481.69C566.905 481.69 567.555 481.845 568.115 482.155C568.685 482.465 569.125 482.905 569.435 483.475C569.755 484.045 569.915 484.71 569.915 485.47V485.665C569.915 486.435 569.755 487.105 569.435 487.675C569.125 488.235 568.685 488.67 568.115 488.98C567.555 489.29 566.905 489.445 566.165 489.445ZM566.165 488.38C566.945 488.38 567.565 488.135 568.025 487.645C568.495 487.145 568.73 486.475 568.73 485.635V485.5C568.73 484.66 568.495 483.995 568.025 483.505C567.565 483.005 566.945 482.755 566.165 482.755C565.395 482.755 564.775 483.005 564.305 483.505C563.835 483.995 563.6 484.66 563.6 485.5V485.635C563.6 486.475 563.835 487.145 564.305 487.645C564.775 488.135 565.395 488.38 566.165 488.38ZM572.933 492.235V491.185H577.133C577.423 491.185 577.568 491.035 577.568 490.735V488.065H577.358C577.258 488.275 577.103 488.485 576.893 488.695C576.693 488.895 576.428 489.06 576.098 489.19C575.768 489.31 575.353 489.37 574.853 489.37C574.323 489.37 573.833 489.255 573.383 489.025C572.943 488.795 572.593 488.455 572.333 488.005C572.083 487.555 571.958 487.005 571.958 486.355V481.9H573.143V486.265C573.143 486.985 573.323 487.51 573.683 487.84C574.053 488.17 574.548 488.335 575.168 488.335C575.868 488.335 576.443 488.105 576.893 487.645C577.343 487.185 577.568 486.5 577.568 485.59V481.9H578.753V490.945C578.753 491.345 578.638 491.66 578.408 491.89C578.188 492.12 577.863 492.235 577.433 492.235H572.933ZM581.232 489.235V481.9H582.387V482.815H582.597C582.737 482.555 582.967 482.315 583.287 482.095C583.607 481.875 584.057 481.765 584.637 481.765C585.207 481.765 585.667 481.89 586.017 482.14C586.377 482.39 586.637 482.695 586.797 483.055H587.007C587.177 482.695 587.432 482.39 587.772 482.14C588.122 481.89 588.607 481.765 589.227 481.765C589.717 481.765 590.147 481.865 590.517 482.065C590.887 482.265 591.177 482.555 591.387 482.935C591.607 483.305 591.717 483.75 591.717 484.27V489.235H590.532V484.375C590.532 483.885 590.387 483.5 590.097 483.22C589.817 482.93 589.422 482.785 588.912 482.785C588.372 482.785 587.927 482.96 587.577 483.31C587.237 483.66 587.067 484.165 587.067 484.825V489.235H585.882V484.375C585.882 483.885 585.737 483.5 585.447 483.22C585.167 482.93 584.772 482.785 584.262 482.785C583.722 482.785 583.277 482.96 582.927 483.31C582.587 483.66 582.417 484.165 582.417 484.825V489.235H581.232ZM597.498 489.445C596.758 489.445 596.108 489.29 595.548 488.98C594.988 488.66 594.553 488.215 594.243 487.645C593.933 487.075 593.778 486.415 593.778 485.665V485.485C593.778 484.725 593.933 484.06 594.243 483.49C594.553 482.92 594.983 482.48 595.533 482.17C596.083 481.85 596.713 481.69 597.423 481.69C598.113 481.69 598.723 481.84 599.253 482.14C599.783 482.43 600.198 482.85 600.498 483.4C600.798 483.95 600.948 484.595 600.948 485.335V485.875H594.963C594.993 486.665 595.248 487.285 595.728 487.735C596.208 488.175 596.808 488.395 597.528 488.395C598.158 488.395 598.643 488.25 598.983 487.96C599.323 487.67 599.583 487.325 599.763 486.925L600.783 487.42C600.633 487.73 600.423 488.04 600.153 488.35C599.893 488.66 599.548 488.92 599.118 489.13C598.698 489.34 598.158 489.445 597.498 489.445ZM594.978 484.9H599.748C599.708 484.22 599.473 483.69 599.043 483.31C598.623 482.93 598.083 482.74 597.423 482.74C596.753 482.74 596.203 482.93 595.773 483.31C595.343 483.69 595.078 484.22 594.978 484.9ZM603.015 489.235V481.9H604.17V483.145H604.38C604.54 482.795 604.81 482.48 605.19 482.2C605.58 481.91 606.15 481.765 606.9 481.765C607.45 481.765 607.94 481.88 608.37 482.11C608.81 482.34 609.16 482.68 609.42 483.13C609.68 483.58 609.81 484.135 609.81 484.795V489.235H608.625V484.885C608.625 484.155 608.44 483.625 608.07 483.295C607.71 482.965 607.22 482.8 606.6 482.8C605.89 482.8 605.31 483.03 604.86 483.49C604.42 483.95 604.2 484.635 604.2 485.545V489.235H603.015ZM614.709 489.235C614.289 489.235 613.964 489.12 613.734 488.89C613.514 488.66 613.404 488.345 613.404 487.945V482.935H611.199V481.9H613.404V479.29H614.589V481.9H616.989V482.935H614.589V487.765C614.589 488.065 614.734 488.215 615.024 488.215H616.659V489.235H614.709Z" fill="white"/>
</g>
</g>
<g filter="url(#filter12_d_144_362)">
<g filter="url(#filter13_d_144_362)">
<path d="M400.395 522.799C400.145 522.799 399.895 522.799 399.645 522.799C399.605 528.296 398.723 533.767 397.018 538.971C390.418 559.992 369.463 575.416 347.52 575.005C319.812 575.544 295.341 550.319 296.02 522.799C295.341 495.28 319.812 470.055 347.52 470.594C369.463 470.182 390.418 485.607 397.018 506.628C398.723 511.832 399.605 517.302 399.645 522.799C399.895 522.799 400.145 522.799 400.395 522.799C400.439 517.227 399.623 511.652 397.959 506.327C391.542 484.823 370.205 468.653 347.52 468.906C318.887 468.112 293.303 494.216 294.02 522.799C294.02 522.799 294.02 522.799 294.02 522.799C293.303 551.383 318.887 577.487 347.52 576.693C370.205 576.946 391.542 560.776 397.959 539.272C399.623 533.947 400.439 528.372 400.395 522.799ZM399.645 522.799H400.395H399.645Z" fill="#3B82F6"/>
</g>
<g filter="url(#filter14_d_144_362)">
<path d="M333.635 528.95C332.855 528.95 332.175 528.81 331.595 528.53C331.015 528.25 330.565 527.835 330.245 527.285C329.925 526.725 329.765 526.04 329.765 525.23V518.24H331.01V525.245C331.01 526.105 331.24 526.75 331.7 527.18C332.16 527.61 332.805 527.825 333.635 527.825C334.465 527.825 335.11 527.61 335.57 527.18C336.03 526.75 336.26 526.105 336.26 525.245V518.24H337.52V525.23C337.52 526.04 337.36 526.725 337.04 527.285C336.72 527.835 336.265 528.25 335.675 528.53C335.095 528.81 334.415 528.95 333.635 528.95ZM339.83 528.74V518.24H341.09V528.74H339.83ZM342.292 531.74L346.702 518.24H347.887L343.477 531.74H342.292ZM352.839 528.95C352.059 528.95 351.379 528.81 350.799 528.53C350.219 528.25 349.769 527.835 349.449 527.285C349.129 526.725 348.969 526.04 348.969 525.23V518.24H350.214V525.245C350.214 526.105 350.444 526.75 350.904 527.18C351.364 527.61 352.009 527.825 352.839 527.825C353.669 527.825 354.314 527.61 354.774 527.18C355.234 526.75 355.464 526.105 355.464 525.245V518.24H356.724V525.23C356.724 526.04 356.564 526.725 356.244 527.285C355.924 527.835 355.469 528.25 354.879 528.53C354.299 528.81 353.619 528.95 352.839 528.95ZM358.314 528.74L361.704 523.445L358.359 518.24H359.844L362.514 522.575H362.709L365.394 518.24H366.864L363.534 523.445L366.924 528.74H365.454L362.709 524.315H362.514L359.784 528.74H358.314Z" fill="white"/>
</g>
</g>
<g filter="url(#filter15_d_144_362)">
<g filter="url(#filter16_d_144_362)">
<path d="M195.395 483.859C195.145 483.859 194.895 483.859 194.645 483.859C194.604 489.692 193.809 495.504 192.251 501.102C186.417 523.466 166.075 542.672 142.52 542.272C112.596 542.52 90.2707 512.505 91.02 483.859C90.2707 455.212 112.596 425.197 142.52 425.445C166.075 425.046 186.417 444.252 192.251 466.616C193.809 472.214 194.604 478.025 194.645 483.859C194.895 483.859 195.145 483.859 195.395 483.859C195.438 477.961 194.713 472.061 193.204 466.357C187.592 443.598 166.984 423.538 142.52 423.758C111.423 423.295 88.2259 454.372 89.02 483.859C88.2259 513.345 111.423 544.423 142.52 543.96C166.984 544.179 187.592 524.119 193.204 501.36C194.713 495.656 195.438 489.756 195.395 483.859ZM194.645 483.859H195.395H194.645Z" fill="#3B82F6"/>
</g>
<g filter="url(#filter17_d_144_362)">
<path d="M126.938 489.235V488.11H128.408V479.86H126.938V478.735H131.033C132.413 478.735 133.478 479.085 134.228 479.785C134.988 480.485 135.368 481.56 135.368 483.01V484.96C135.368 486.42 134.988 487.5 134.228 488.2C133.478 488.89 132.413 489.235 131.033 489.235H126.938ZM129.668 488.095H131.033C132.053 488.095 132.823 487.845 133.343 487.345C133.863 486.845 134.123 486.07 134.123 485.02V482.965C134.123 481.895 133.863 481.115 133.343 480.625C132.823 480.135 132.053 479.89 131.033 479.89H129.668V488.095ZM139.674 489.445C139.164 489.445 138.699 489.355 138.279 489.175C137.859 488.995 137.529 488.735 137.289 488.395C137.049 488.055 136.929 487.64 136.929 487.15C136.929 486.65 137.049 486.24 137.289 485.92C137.529 485.59 137.859 485.345 138.279 485.185C138.699 485.015 139.169 484.93 139.689 484.93H142.164V484.39C142.164 483.87 142.009 483.46 141.699 483.16C141.399 482.86 140.949 482.71 140.349 482.71C139.759 482.71 139.299 482.855 138.969 483.145C138.639 483.425 138.414 483.805 138.294 484.285L137.184 483.925C137.304 483.515 137.494 483.145 137.754 482.815C138.014 482.475 138.359 482.205 138.789 482.005C139.229 481.795 139.754 481.69 140.364 481.69C141.304 481.69 142.034 481.935 142.554 482.425C143.074 482.905 143.334 483.585 143.334 484.465V487.78C143.334 488.08 143.474 488.23 143.754 488.23H144.429V489.235H143.394C143.064 489.235 142.799 489.145 142.599 488.965C142.399 488.775 142.299 488.525 142.299 488.215V488.14H142.119C142.009 488.33 141.859 488.53 141.669 488.74C141.489 488.94 141.239 489.105 140.919 489.235C140.599 489.375 140.184 489.445 139.674 489.445ZM139.809 488.425C140.509 488.425 141.074 488.22 141.504 487.81C141.944 487.39 142.164 486.805 142.164 486.055V485.89H139.734C139.264 485.89 138.874 485.995 138.564 486.205C138.264 486.405 138.114 486.71 138.114 487.12C138.114 487.53 138.269 487.85 138.579 488.08C138.899 488.31 139.309 488.425 139.809 488.425ZM148.269 489.235C147.849 489.235 147.524 489.12 147.294 488.89C147.074 488.66 146.964 488.345 146.964 487.945V482.935H144.759V481.9H146.964V479.29H148.149V481.9H150.549V482.935H148.149V487.765C148.149 488.065 148.294 488.215 148.584 488.215H150.219V489.235H148.269ZM154.674 489.445C154.164 489.445 153.699 489.355 153.279 489.175C152.859 488.995 152.529 488.735 152.289 488.395C152.049 488.055 151.929 487.64 151.929 487.15C151.929 486.65 152.049 486.24 152.289 485.92C152.529 485.59 152.859 485.345 153.279 485.185C153.699 485.015 154.169 484.93 154.689 484.93H157.164V484.39C157.164 483.87 157.009 483.46 156.699 483.16C156.399 482.86 155.949 482.71 155.349 482.71C154.759 482.71 154.299 482.855 153.969 483.145C153.639 483.425 153.414 483.805 153.294 484.285L152.184 483.925C152.304 483.515 152.494 483.145 152.754 482.815C153.014 482.475 153.359 482.205 153.789 482.005C154.229 481.795 154.754 481.69 155.364 481.69C156.304 481.69 157.034 481.935 157.554 482.425C158.074 482.905 158.334 483.585 158.334 484.465V487.78C158.334 488.08 158.474 488.23 158.754 488.23H159.429V489.235H158.394C158.064 489.235 157.799 489.145 157.599 488.965C157.399 488.775 157.299 488.525 157.299 488.215V488.14H157.119C157.009 488.33 156.859 488.53 156.669 488.74C156.489 488.94 156.239 489.105 155.919 489.235C155.599 489.375 155.184 489.445 154.674 489.445ZM154.809 488.425C155.509 488.425 156.074 488.22 156.504 487.81C156.944 487.39 157.164 486.805 157.164 486.055V485.89H154.734C154.264 485.89 153.874 485.995 153.564 486.205C153.264 486.405 153.114 486.71 153.114 487.12C153.114 487.53 153.269 487.85 153.579 488.08C153.899 488.31 154.309 488.425 154.809 488.425Z" fill="white"/>
</g>
</g>
<g filter="url(#filter18_d_144_362)">
<g filter="url(#filter19_d_144_362)">
<path d="M111.395 296.492C111.145 296.492 110.895 296.492 110.645 296.492C110.604 302.326 109.809 308.137 108.251 313.735C102.417 336.099 82.0749 355.306 58.52 354.906C28.5958 355.154 6.27071 325.139 7.02002 296.492C6.27072 267.846 28.5958 237.831 58.52 238.079C82.0749 237.679 102.417 256.886 108.251 279.25C109.809 284.847 110.604 290.659 110.645 296.492C110.895 296.492 111.145 296.492 111.395 296.492C111.438 290.595 110.713 284.695 109.204 278.991C103.592 256.232 82.9843 236.172 58.52 236.391C27.4229 235.928 4.22587 267.006 5.02002 296.492C4.22587 325.979 27.4229 357.056 58.52 356.594C82.9843 356.813 103.592 336.753 109.204 313.994C110.713 308.29 111.438 302.39 111.395 296.492ZM110.645 296.492H111.395H110.645Z" fill="#3B82F6"/>
</g>
<g filter="url(#filter20_d_144_362)">
<path d="M32.8947 302.079C32.1347 302.079 31.4547 301.944 30.8547 301.674C30.2547 301.404 29.7797 300.999 29.4297 300.459C29.0897 299.909 28.9197 299.224 28.9197 298.404V298.089H30.1647V298.404C30.1647 299.274 30.4197 299.924 30.9297 300.354C31.4397 300.774 32.0947 300.984 32.8947 300.984C33.7147 300.984 34.3397 300.799 34.7697 300.429C35.1997 300.059 35.4147 299.594 35.4147 299.034C35.4147 298.644 35.3147 298.334 35.1147 298.104C34.9247 297.874 34.6547 297.689 34.3047 297.549C33.9547 297.399 33.5447 297.269 33.0747 297.159L32.2947 296.964C31.6847 296.804 31.1447 296.609 30.6747 296.379C30.2047 296.149 29.8347 295.849 29.5647 295.479C29.3047 295.099 29.1747 294.614 29.1747 294.024C29.1747 293.434 29.3197 292.924 29.6097 292.494C29.9097 292.064 30.3247 291.734 30.8547 291.504C31.3947 291.274 32.0147 291.159 32.7147 291.159C33.4247 291.159 34.0597 291.284 34.6197 291.534C35.1897 291.774 35.6347 292.134 35.9547 292.614C36.2847 293.084 36.4497 293.679 36.4497 294.399V295.029H35.2047V294.399C35.2047 293.889 35.0947 293.479 34.8747 293.169C34.6647 292.859 34.3697 292.629 33.9897 292.479C33.6197 292.329 33.1947 292.254 32.7147 292.254C32.0247 292.254 31.4697 292.409 31.0497 292.719C30.6297 293.019 30.4197 293.449 30.4197 294.009C30.4197 294.379 30.5097 294.679 30.6897 294.909C30.8697 295.139 31.1247 295.329 31.4547 295.479C31.7847 295.619 32.1797 295.744 32.6397 295.854L33.4197 296.049C34.0297 296.179 34.5747 296.359 35.0547 296.589C35.5447 296.809 35.9347 297.114 36.2247 297.504C36.5147 297.884 36.6597 298.384 36.6597 299.004C36.6597 299.624 36.5047 300.164 36.1947 300.624C35.8847 301.084 35.4447 301.444 34.8747 301.704C34.3147 301.954 33.6547 302.079 32.8947 302.079ZM42.0039 302.079C41.2639 302.079 40.6139 301.924 40.0539 301.614C39.4939 301.294 39.0589 300.849 38.7489 300.279C38.4389 299.709 38.2839 299.049 38.2839 298.299V298.119C38.2839 297.359 38.4389 296.694 38.7489 296.124C39.0589 295.554 39.4889 295.114 40.0389 294.804C40.5889 294.484 41.2189 294.324 41.9289 294.324C42.6189 294.324 43.2289 294.474 43.7589 294.774C44.2889 295.064 44.7039 295.484 45.0039 296.034C45.3039 296.584 45.4539 297.229 45.4539 297.969V298.509H39.4689C39.4989 299.299 39.7539 299.919 40.2339 300.369C40.7139 300.809 41.3139 301.029 42.0339 301.029C42.6639 301.029 43.1489 300.884 43.4889 300.594C43.8289 300.304 44.0889 299.959 44.2689 299.559L45.2889 300.054C45.1389 300.364 44.9289 300.674 44.6589 300.984C44.3989 301.294 44.0539 301.554 43.6239 301.764C43.2039 301.974 42.6639 302.079 42.0039 302.079ZM39.4839 297.534H44.2539C44.2139 296.854 43.9789 296.324 43.5489 295.944C43.1289 295.564 42.5889 295.374 41.9289 295.374C41.2589 295.374 40.7089 295.564 40.2789 295.944C39.8489 296.324 39.5839 296.854 39.4839 297.534ZM50.8959 302.079C50.1859 302.079 49.5459 301.929 48.9759 301.629C48.4159 301.319 47.9709 300.879 47.6409 300.309C47.3209 299.739 47.1609 299.064 47.1609 298.284V298.119C47.1609 297.329 47.3209 296.654 47.6409 296.094C47.9709 295.524 48.4159 295.089 48.9759 294.789C49.5459 294.479 50.1859 294.324 50.8959 294.324C51.5959 294.324 52.1909 294.454 52.6809 294.714C53.1809 294.974 53.5709 295.319 53.8509 295.749C54.1409 296.179 54.3259 296.639 54.4059 297.129L53.2509 297.369C53.2009 297.009 53.0809 296.679 52.8909 296.379C52.7109 296.079 52.4559 295.839 52.1259 295.659C51.7959 295.479 51.3909 295.389 50.9109 295.389C50.4209 295.389 49.9809 295.499 49.5909 295.719C49.2109 295.939 48.9059 296.254 48.6759 296.664C48.4559 297.074 48.3459 297.564 48.3459 298.134V298.269C48.3459 298.839 48.4559 299.329 48.6759 299.739C48.9059 300.149 49.2109 300.464 49.5909 300.684C49.9809 300.904 50.4209 301.014 50.9109 301.014C51.6409 301.014 52.1959 300.824 52.5759 300.444C52.9659 300.064 53.2059 299.594 53.2959 299.034L54.4659 299.289C54.3559 299.769 54.1559 300.224 53.8659 300.654C53.5759 301.084 53.1809 301.429 52.6809 301.689C52.1909 301.949 51.5959 302.079 50.8959 302.079ZM59.2907 302.004C58.7607 302.004 58.2707 301.889 57.8207 301.659C57.3807 301.429 57.0307 301.089 56.7707 300.639C56.5207 300.179 56.3957 299.624 56.3957 298.974V294.534H57.5807V298.884C57.5807 299.614 57.7607 300.144 58.1207 300.474C58.4907 300.804 58.9857 300.969 59.6057 300.969C60.3057 300.969 60.8807 300.739 61.3307 300.279C61.7807 299.819 62.0057 299.134 62.0057 298.224V294.534H63.1907V301.869H62.0357V300.624H61.8257C61.6657 300.974 61.3907 301.294 61.0007 301.584C60.6107 301.864 60.0407 302.004 59.2907 302.004ZM65.6703 301.869V294.534H66.8253V295.434H67.0353C67.1653 295.114 67.3653 294.879 67.6353 294.729C67.9053 294.579 68.2603 294.504 68.7003 294.504H69.5703V295.584H68.6253C68.0953 295.584 67.6653 295.734 67.3353 296.034C67.0153 296.324 66.8553 296.779 66.8553 297.399V301.869H65.6703ZM71.3246 301.869V294.534H72.5096V301.869H71.3246ZM71.9246 293.394C71.6646 293.394 71.4446 293.309 71.2646 293.139C71.0946 292.969 71.0096 292.754 71.0096 292.494C71.0096 292.224 71.0946 292.004 71.2646 291.834C71.4446 291.664 71.6646 291.579 71.9246 291.579C72.1846 291.579 72.3996 291.664 72.5696 291.834C72.7396 292.004 72.8246 292.224 72.8246 292.494C72.8246 292.754 72.7396 292.969 72.5696 293.139C72.3996 293.309 72.1846 293.394 71.9246 293.394ZM77.7013 301.869C77.2813 301.869 76.9563 301.754 76.7263 301.524C76.5063 301.294 76.3963 300.979 76.3963 300.579V295.569H74.1913V294.534H76.3963V291.924H77.5813V294.534H79.9813V295.569H77.5813V300.399C77.5813 300.699 77.7263 300.849 78.0163 300.849H79.6513V301.869H77.7013ZM82.7858 304.869V303.819H86.9858C87.2758 303.819 87.4208 303.669 87.4208 303.369V300.699H87.2108C87.1108 300.909 86.9558 301.119 86.7458 301.329C86.5458 301.529 86.2808 301.694 85.9508 301.824C85.6208 301.944 85.2058 302.004 84.7058 302.004C84.1758 302.004 83.6858 301.889 83.2358 301.659C82.7958 301.429 82.4458 301.089 82.1858 300.639C81.9358 300.189 81.8108 299.639 81.8108 298.989V294.534H82.9958V298.899C82.9958 299.619 83.1758 300.144 83.5358 300.474C83.9058 300.804 84.4008 300.969 85.0208 300.969C85.7208 300.969 86.2958 300.739 86.7458 300.279C87.1958 299.819 87.4208 299.134 87.4208 298.224V294.534H88.6058V303.579C88.6058 303.979 88.4908 304.294 88.2608 304.524C88.0408 304.754 87.7158 304.869 87.2858 304.869H82.7858Z" fill="white"/>
</g>
</g>
<g filter="url(#filter21_d_144_362)">
<g filter="url(#filter22_d_144_362)">
<path d="M694.395 296.492C694.145 296.492 693.895 296.492 693.645 296.492C693.604 302.326 692.809 308.137 691.251 313.735C685.417 336.099 665.075 355.306 641.52 354.906C611.596 355.154 589.271 325.139 590.02 296.492C589.271 267.846 611.596 237.831 641.52 238.079C665.075 237.679 685.417 256.886 691.251 279.25C692.809 284.847 693.604 290.659 693.645 296.492C693.895 296.492 694.145 296.492 694.395 296.492C694.438 290.595 693.713 284.695 692.204 278.991C686.592 256.232 665.984 236.172 641.52 236.391C610.423 235.928 587.226 267.006 588.02 296.492C587.226 325.979 610.423 357.056 641.52 356.594C665.984 356.813 686.592 336.753 692.204 313.994C693.713 308.29 694.438 302.39 694.395 296.492ZM693.645 296.492H694.395H693.645Z" fill="#3B82F6"/>
</g>
<g filter="url(#filter23_d_144_362)">
<path d="M596.294 301.869L599.534 291.369H601.754L604.994 301.869H603.689L602.879 299.214H598.409L597.599 301.869H596.294ZM598.724 298.074H602.549L600.749 292.134H600.539L598.724 298.074ZM606.613 301.869V294.534H607.768V295.434H607.978C608.108 295.114 608.308 294.879 608.578 294.729C608.848 294.579 609.203 294.504 609.643 294.504H610.513V295.584H609.568C609.038 295.584 608.608 295.734 608.278 296.034C607.958 296.324 607.798 296.779 607.798 297.399V301.869H606.613ZM615.378 302.079C614.668 302.079 614.028 301.929 613.458 301.629C612.898 301.319 612.453 300.879 612.123 300.309C611.803 299.739 611.643 299.064 611.643 298.284V298.119C611.643 297.329 611.803 296.654 612.123 296.094C612.453 295.524 612.898 295.089 613.458 294.789C614.028 294.479 614.668 294.324 615.378 294.324C616.078 294.324 616.673 294.454 617.163 294.714C617.663 294.974 618.053 295.319 618.333 295.749C618.623 296.179 618.808 296.639 618.888 297.129L617.733 297.369C617.683 297.009 617.563 296.679 617.373 296.379C617.193 296.079 616.938 295.839 616.608 295.659C616.278 295.479 615.873 295.389 615.393 295.389C614.903 295.389 614.463 295.499 614.073 295.719C613.693 295.939 613.388 296.254 613.158 296.664C612.938 297.074 612.828 297.564 612.828 298.134V298.269C612.828 298.839 612.938 299.329 613.158 299.739C613.388 300.149 613.693 300.464 614.073 300.684C614.463 300.904 614.903 301.014 615.393 301.014C616.123 301.014 616.678 300.824 617.058 300.444C617.448 300.064 617.688 299.594 617.778 299.034L618.948 299.289C618.838 299.769 618.638 300.224 618.348 300.654C618.058 301.084 617.663 301.429 617.163 301.689C616.673 301.949 616.078 302.079 615.378 302.079ZM620.968 301.869V291.369H622.153V295.704H622.363C622.463 295.484 622.613 295.279 622.813 295.089C623.023 294.889 623.288 294.724 623.608 294.594C623.938 294.464 624.353 294.399 624.853 294.399C625.403 294.399 625.893 294.519 626.323 294.759C626.763 294.989 627.113 295.329 627.373 295.779C627.633 296.219 627.763 296.769 627.763 297.429V301.869H626.578V297.519C626.578 296.789 626.393 296.259 626.023 295.929C625.663 295.599 625.173 295.434 624.553 295.434C623.843 295.434 623.263 295.664 622.813 296.124C622.373 296.584 622.153 297.269 622.153 298.179V301.869H620.968ZM630.167 301.869V294.534H631.352V301.869H630.167ZM630.767 293.394C630.507 293.394 630.287 293.309 630.107 293.139C629.937 292.969 629.852 292.754 629.852 292.494C629.852 292.224 629.937 292.004 630.107 291.834C630.287 291.664 630.507 291.579 630.767 291.579C631.027 291.579 631.242 291.664 631.412 291.834C631.582 292.004 631.667 292.224 631.667 292.494C631.667 292.754 631.582 292.969 631.412 293.139C631.242 293.309 631.027 293.394 630.767 293.394ZM636.544 301.869C636.124 301.869 635.799 301.754 635.569 301.524C635.349 301.294 635.239 300.979 635.239 300.579V295.569H633.034V294.534H635.239V291.924H636.424V294.534H638.824V295.569H636.424V300.399C636.424 300.699 636.569 300.849 636.859 300.849H638.494V301.869H636.544ZM643.84 302.079C643.1 302.079 642.45 301.924 641.89 301.614C641.33 301.294 640.895 300.849 640.585 300.279C640.275 299.709 640.12 299.049 640.12 298.299V298.119C640.12 297.359 640.275 296.694 640.585 296.124C640.895 295.554 641.325 295.114 641.875 294.804C642.425 294.484 643.055 294.324 643.765 294.324C644.455 294.324 645.065 294.474 645.595 294.774C646.125 295.064 646.54 295.484 646.84 296.034C647.14 296.584 647.29 297.229 647.29 297.969V298.509H641.305C641.335 299.299 641.59 299.919 642.07 300.369C642.55 300.809 643.15 301.029 643.87 301.029C644.5 301.029 644.985 300.884 645.325 300.594C645.665 300.304 645.925 299.959 646.105 299.559L647.125 300.054C646.975 300.364 646.765 300.674 646.495 300.984C646.235 301.294 645.89 301.554 645.46 301.764C645.04 301.974 644.5 302.079 643.84 302.079ZM641.32 297.534H646.09C646.05 296.854 645.815 296.324 645.385 295.944C644.965 295.564 644.425 295.374 643.765 295.374C643.095 295.374 642.545 295.564 642.115 295.944C641.685 296.324 641.42 296.854 641.32 297.534ZM652.732 302.079C652.022 302.079 651.382 301.929 650.812 301.629C650.252 301.319 649.807 300.879 649.477 300.309C649.157 299.739 648.997 299.064 648.997 298.284V298.119C648.997 297.329 649.157 296.654 649.477 296.094C649.807 295.524 650.252 295.089 650.812 294.789C651.382 294.479 652.022 294.324 652.732 294.324C653.432 294.324 654.027 294.454 654.517 294.714C655.017 294.974 655.407 295.319 655.687 295.749C655.977 296.179 656.162 296.639 656.242 297.129L655.087 297.369C655.037 297.009 654.917 296.679 654.727 296.379C654.547 296.079 654.292 295.839 653.962 295.659C653.632 295.479 653.227 295.389 652.747 295.389C652.257 295.389 651.817 295.499 651.427 295.719C651.047 295.939 650.742 296.254 650.512 296.664C650.292 297.074 650.182 297.564 650.182 298.134V298.269C650.182 298.839 650.292 299.329 650.512 299.739C650.742 300.149 651.047 300.464 651.427 300.684C651.817 300.904 652.257 301.014 652.747 301.014C653.477 301.014 654.032 300.824 654.412 300.444C654.802 300.064 655.042 299.594 655.132 299.034L656.302 299.289C656.192 299.769 655.992 300.224 655.702 300.654C655.412 301.084 655.017 301.429 654.517 301.689C654.027 301.949 653.432 302.079 652.732 302.079ZM660.714 301.869C660.294 301.869 659.969 301.754 659.739 301.524C659.519 301.294 659.409 300.979 659.409 300.579V295.569H657.204V294.534H659.409V291.924H660.594V294.534H662.994V295.569H660.594V300.399C660.594 300.699 660.739 300.849 661.029 300.849H662.664V301.869H660.714ZM667.718 302.004C667.188 302.004 666.698 301.889 666.248 301.659C665.808 301.429 665.458 301.089 665.198 300.639C664.948 300.179 664.823 299.624 664.823 298.974V294.534H666.008V298.884C666.008 299.614 666.188 300.144 666.548 300.474C666.918 300.804 667.413 300.969 668.033 300.969C668.733 300.969 669.308 300.739 669.758 300.279C670.208 299.819 670.433 299.134 670.433 298.224V294.534H671.618V301.869H670.463V300.624H670.253C670.093 300.974 669.818 301.294 669.428 301.584C669.038 301.864 668.468 302.004 667.718 302.004ZM674.098 301.869V294.534H675.253V295.434H675.463C675.593 295.114 675.793 294.879 676.063 294.729C676.333 294.579 676.688 294.504 677.128 294.504H677.998V295.584H677.053C676.523 295.584 676.093 295.734 675.763 296.034C675.443 296.324 675.283 296.779 675.283 297.399V301.869H674.098ZM682.849 302.079C682.109 302.079 681.459 301.924 680.899 301.614C680.339 301.294 679.904 300.849 679.594 300.279C679.284 299.709 679.129 299.049 679.129 298.299V298.119C679.129 297.359 679.284 296.694 679.594 296.124C679.904 295.554 680.334 295.114 680.884 294.804C681.434 294.484 682.064 294.324 682.774 294.324C683.464 294.324 684.074 294.474 684.604 294.774C685.134 295.064 685.549 295.484 685.849 296.034C686.149 296.584 686.299 297.229 686.299 297.969V298.509H680.314C680.344 299.299 680.599 299.919 681.079 300.369C681.559 300.809 682.159 301.029 682.879 301.029C683.509 301.029 683.994 300.884 684.334 300.594C684.674 300.304 684.934 299.959 685.114 299.559L686.134 300.054C685.984 300.364 685.774 300.674 685.504 300.984C685.244 301.294 684.899 301.554 684.469 301.764C684.049 301.974 683.509 302.079 682.849 302.079ZM680.329 297.534H685.099C685.059 296.854 684.824 296.324 684.394 295.944C683.974 295.564 683.434 295.374 682.774 295.374C682.104 295.374 681.554 295.564 681.124 295.944C680.694 296.324 680.429 296.854 680.329 297.534Z" fill="white"/>
</g>
</g>
<g filter="url(#filter24_d_144_362)">
<g filter="url(#filter25_d_144_362)">
<path d="M195.395 124.928C195.145 124.928 194.895 124.928 194.645 124.928C194.604 130.761 193.809 136.573 192.251 142.171C186.417 164.535 166.075 183.741 142.52 183.342C112.596 183.589 90.2707 153.574 91.02 124.928C90.2707 96.2817 112.596 66.2667 142.52 66.5144C166.075 66.1149 186.417 85.3213 192.251 107.685C193.809 113.283 194.604 119.095 194.645 124.928C194.895 124.928 195.145 124.928 195.395 124.928C195.438 119.03 194.713 113.131 193.204 107.427C187.592 84.6676 166.984 64.6073 142.52 64.8269C111.423 64.364 88.2259 95.4418 89.02 124.928C88.2259 154.414 111.423 185.492 142.52 185.029C166.984 185.249 187.592 165.189 193.204 142.43C194.713 136.726 195.438 130.826 195.395 124.928ZM194.645 124.928H195.395H194.645Z" fill="#3B82F6"/>
</g>
<g filter="url(#filter26_d_144_362)">
<path d="M127.309 130.514C126.059 130.514 125.064 130.154 124.324 129.434C123.584 128.704 123.214 127.644 123.214 126.254V123.854C123.214 122.464 123.584 121.409 124.324 120.689C125.064 119.959 126.059 119.594 127.309 119.594C128.549 119.594 129.499 119.939 130.159 120.629C130.829 121.319 131.164 122.264 131.164 123.464V123.539H129.919V123.419C129.919 122.629 129.704 121.984 129.274 121.484C128.854 120.974 128.199 120.719 127.309 120.719C126.419 120.719 125.724 120.994 125.224 121.544C124.724 122.084 124.474 122.844 124.474 123.824V126.284C124.474 127.264 124.724 128.029 125.224 128.579C125.724 129.119 126.419 129.389 127.309 129.389C128.199 129.389 128.854 129.139 129.274 128.639C129.704 128.129 129.919 127.479 129.919 126.689V126.449H131.164V126.644C131.164 127.844 130.829 128.789 130.159 129.479C129.499 130.169 128.549 130.514 127.309 130.514ZM133.183 130.304V119.804H134.368V130.304H133.183ZM140.25 130.514C139.51 130.514 138.855 130.359 138.285 130.049C137.725 129.739 137.285 129.304 136.965 128.744C136.655 128.174 136.5 127.504 136.5 126.734V126.539C136.5 125.779 136.655 125.114 136.965 124.544C137.285 123.974 137.725 123.534 138.285 123.224C138.855 122.914 139.51 122.759 140.25 122.759C140.99 122.759 141.64 122.914 142.2 123.224C142.77 123.534 143.21 123.974 143.52 124.544C143.84 125.114 144 125.779 144 126.539V126.734C144 127.504 143.84 128.174 143.52 128.744C143.21 129.304 142.77 129.739 142.2 130.049C141.64 130.359 140.99 130.514 140.25 130.514ZM140.25 129.449C141.03 129.449 141.65 129.204 142.11 128.714C142.58 128.214 142.815 127.544 142.815 126.704V126.569C142.815 125.729 142.58 125.064 142.11 124.574C141.65 124.074 141.03 123.824 140.25 123.824C139.48 123.824 138.86 124.074 138.39 124.574C137.92 125.064 137.685 125.729 137.685 126.569V126.704C137.685 127.544 137.92 128.214 138.39 128.714C138.86 129.204 139.48 129.449 140.25 129.449ZM148.938 130.439C148.408 130.439 147.918 130.324 147.468 130.094C147.028 129.864 146.678 129.524 146.418 129.074C146.168 128.614 146.043 128.059 146.043 127.409V122.969H147.228V127.319C147.228 128.049 147.408 128.579 147.768 128.909C148.138 129.239 148.633 129.404 149.253 129.404C149.953 129.404 150.528 129.174 150.978 128.714C151.428 128.254 151.653 127.569 151.653 126.659V122.969H152.838V130.304H151.683V129.059H151.473C151.313 129.409 151.038 129.729 150.648 130.019C150.258 130.299 149.688 130.439 148.938 130.439ZM158.422 130.514C157.792 130.514 157.212 130.364 156.682 130.064C156.152 129.764 155.732 129.329 155.422 128.759C155.112 128.189 154.957 127.514 154.957 126.734V126.539C154.957 125.759 155.112 125.089 155.422 124.529C155.732 123.959 156.147 123.524 156.667 123.224C157.197 122.914 157.782 122.759 158.422 122.759C158.932 122.759 159.362 122.829 159.712 122.969C160.072 123.099 160.362 123.269 160.582 123.479C160.802 123.679 160.972 123.894 161.092 124.124H161.302V119.804H162.487V130.304H161.332V129.089H161.122C160.922 129.459 160.612 129.789 160.192 130.079C159.772 130.369 159.182 130.514 158.422 130.514ZM158.737 129.464C159.497 129.464 160.112 129.224 160.582 128.744C161.062 128.254 161.302 127.574 161.302 126.704V126.569C161.302 125.699 161.062 125.024 160.582 124.544C160.112 124.054 159.497 123.809 158.737 123.809C157.987 123.809 157.367 124.054 156.877 124.544C156.397 125.024 156.157 125.699 156.157 126.569V126.704C156.157 127.574 156.397 128.254 156.877 128.744C157.367 129.224 157.987 129.464 158.737 129.464Z" fill="white"/>
</g>
</g>
<g filter="url(#filter27_d_144_362)">
<line x1="349.52" y1="124.364" x2="349.52" y2="206.76" stroke="#3B82F6" stroke-width="3"/>
</g>
<g filter="url(#filter28_d_144_362)">
<line x1="349.52" y1="383.968" x2="349.52" y2="466.364" stroke="#3B82F6" stroke-width="3"/>
</g>
<g filter="url(#filter29_d_144_362)">
<line y1="-1.5" x2="142.455" y2="-1.5" transform="matrix(-0.821313 0.570478 -0.478686 -0.877986 527.02 155.968)" stroke="#3B82F6" stroke-width="3"/>
</g>
<g filter="url(#filter30_d_144_362)">
<line y1="-1.5" x2="152.34" y2="-1.5" transform="matrix(-0.794278 -0.607554 0.514752 -0.857339 527.02 450.562)" stroke="#3B82F6" stroke-width="3"/>
</g>
<g filter="url(#filter31_d_144_362)">
<line y1="-1.5" x2="131.986" y2="-1.5" transform="matrix(-0.787961 -0.615725 0.522845 -0.852427 290.02 237.235)" stroke="#3B82F6" stroke-width="3"/>
</g>
<g filter="url(#filter32_d_144_362)">
<line y1="-1.5" x2="142.266" y2="-1.5" transform="matrix(-0.766169 0.642639 -0.549898 -0.835232 295.02 358.007)" stroke="#3B82F6" stroke-width="3"/>
</g>
<g filter="url(#filter33_d_144_362)">
<line x1="272.02" y1="298.557" x2="117.02" y2="298.557" stroke="#3B82F6" stroke-width="3"/>
</g>
<g filter="url(#filter34_d_144_362)">
<line x1="589.026" y1="297.458" x2="428.008" y2="297.458" stroke="#3B82F6" stroke-width="3"/>
</g>
<defs>
<filter id="filter0_d_144_362" x="266.991" y="203.038" width="165.405" height="185.78" filterUnits="userSpaceOnUse" color-interpolation-filters="sRGB">
<feFlood flood-opacity="0" result="BackgroundImageFix"/>
<feColorMatrix in="SourceAlpha" type="matrix" values="0 0 0 0 0 0 0 0 0 0 0 0 0 0 0 0 0 0 127 0" result="hardAlpha"/>
<feOffset/>
<feGaussianBlur stdDeviation="2"/>
<feComposite in2="hardAlpha" operator="out"/>
<feColorMatrix type="matrix" values="0 0 0 0 0.231373 0 0 0 0 0.509804 0 0 0 0 0.964706 0 0 0 1 0"/>
<feBlend mode="overlay" in2="BackgroundImageFix" result="effect1_dropShadow_144_362"/>
<feBlend mode="normal" in="SourceGraphic" in2="effect1_dropShadow_144_362" result="shape"/>
</filter>
<filter id="filter1_di_144_362" x="266.991" y="203.038" width="165.405" height="185.78" filterUnits="userSpaceOnUse" color-interpolation-filters="sRGB">
<feFlood flood-opacity="0" result="BackgroundImageFix"/>
<feColorMatrix in="SourceAlpha" type="matrix" values="0 0 0 0 0 0 0 0 0 0 0 0 0 0 0 0 0 0 127 0" result="hardAlpha"/>
<feOffset/>
<feGaussianBlur stdDeviation="2"/>
<feComposite in2="hardAlpha" operator="out"/>
<feColorMatrix type="matrix" values="0 0 0 0 0.231373 0 0 0 0 0.509804 0 0 0 0 0.964706 0 0 0 1 0"/>
<feBlend mode="normal" in2="BackgroundImageFix" result="effect1_dropShadow_144_362"/>
<feBlend mode="normal" in="SourceGraphic" in2="effect1_dropShadow_144_362" result="shape"/>
<feColorMatrix in="SourceAlpha" type="matrix" values="0 0 0 0 0 0 0 0 0 0 0 0 0 0 0 0 0 0 127 0" result="hardAlpha"/>
<feMorphology radius="10" operator="erode" in="SourceAlpha" result="effect2_innerShadow_144_362"/>
<feOffset/>
<feGaussianBlur stdDeviation="2"/>
<feComposite in2="hardAlpha" operator="arithmetic" k2="-1" k3="1"/>
<feColorMatrix type="matrix" values="0 0 0 0 0.231373 0 0 0 0 0.509804 0 0 0 0 0.964706 0 0 0 1 0"/>
<feBlend mode="normal" in2="shape" result="effect2_innerShadow_144_362"/>
</filter>
<filter id="filter2_d_144_362" x="272.409" y="240.419" width="155.311" height="109.84" filterUnits="userSpaceOnUse" color-interpolation-filters="sRGB">
<feFlood flood-opacity="0" result="BackgroundImageFix"/>
<feColorMatrix in="SourceAlpha" type="matrix" values="0 0 0 0 0 0 0 0 0 0 0 0 0 0 0 0 0 0 127 0" result="hardAlpha"/>
<feOffset/>
<feGaussianBlur stdDeviation="12.5"/>
<feComposite in2="hardAlpha" operator="out"/>
<feColorMatrix type="matrix" values="0 0 0 0 0.498039 0 0 0 0 0.113725 0 0 0 0 0.113725 0 0 0 1 0"/>
<feBlend mode="luminosity" in2="BackgroundImageFix" result="effect1_dropShadow_144_362"/>
<feBlend mode="normal" in="SourceGraphic" in2="effect1_dropShadow_144_362" result="shape"/>
</filter>
<filter id="filter3_d_144_362" x="290" y="1" width="114.397" height="128.213" filterUnits="userSpaceOnUse" color-interpolation-filters="sRGB">
<feFlood flood-opacity="0" result="BackgroundImageFix"/>
<feColorMatrix in="SourceAlpha" type="matrix" values="0 0 0 0 0 0 0 0 0 0 0 0 0 0 0 0 0 0 127 0" result="hardAlpha"/>
<feOffset/>
<feGaussianBlur stdDeviation="2"/>
<feComposite in2="hardAlpha" operator="out"/>
<feColorMatrix type="matrix" values="0 0 0 0 0.231373 0 0 0 0 0.509804 0 0 0 0 0.964706 0 0 0 1 0"/>
<feBlend mode="overlay" in2="BackgroundImageFix" result="effect1_dropShadow_144_362"/>
<feBlend mode="normal" in="SourceGraphic" in2="effect1_dropShadow_144_362" result="shape"/>
</filter>
<filter id="filter4_d_144_362" x="289" y="0" width="116.397" height="130.213" filterUnits="userSpaceOnUse" color-interpolation-filters="sRGB">
<feFlood flood-opacity="0" result="BackgroundImageFix"/>
<feColorMatrix in="SourceAlpha" type="matrix" values="0 0 0 0 0 0 0 0 0 0 0 0 0 0 0 0 0 0 127 0" result="hardAlpha"/>
<feMorphology radius="1" operator="dilate" in="SourceAlpha" result="effect1_dropShadow_144_362"/>
<feOffset/>
<feGaussianBlur stdDeviation="2"/>
<feColorMatrix type="matrix" values="0 0 0 0 0.231373 0 0 0 0 0.509804 0 0 0 0 0.964706 0 0 0 0.82 0"/>
<feBlend mode="normal" in2="BackgroundImageFix" result="effect1_dropShadow_144_362"/>
<feBlend mode="normal" in="SourceGraphic" in2="effect1_dropShadow_144_362" result="shape"/>
</filter>
<filter id="filter5_d_144_362" x="312.159" y="57.9825" width="71.6846" height="18.71" filterUnits="userSpaceOnUse" color-interpolation-filters="sRGB">
<feFlood flood-opacity="0" result="BackgroundImageFix"/>
<feColorMatrix in="SourceAlpha" type="matrix" values="0 0 0 0 0 0 0 0 0 0 0 0 0 0 0 0 0 0 127 0" result="hardAlpha"/>
<feOffset dy="2"/>
<feGaussianBlur stdDeviation="2"/>
<feComposite in2="hardAlpha" operator="out"/>
<feColorMatrix type="matrix" values="0 0 0 0 0.898039 0 0 0 0 0.905882 0 0 0 0 0.921569 0 0 0 1 0"/>
<feBlend mode="normal" in2="BackgroundImageFix" result="effect1_dropShadow_144_362"/>
<feBlend mode="normal" in="SourceGraphic" in2="effect1_dropShadow_144_362" result="shape"/>
</filter>
<filter id="filter6_d_144_362" x="516" y="60.8218" width="114.397" height="128.213" filterUnits="userSpaceOnUse" color-interpolation-filters="sRGB">
<feFlood flood-opacity="0" result="BackgroundImageFix"/>
<feColorMatrix in="SourceAlpha" type="matrix" values="0 0 0 0 0 0 0 0 0 0 0 0 0 0 0 0 0 0 127 0" result="hardAlpha"/>
<feOffset/>
<feGaussianBlur stdDeviation="2"/>
<feComposite in2="hardAlpha" operator="out"/>
<feColorMatrix type="matrix" values="0 0 0 0 0.231373 0 0 0 0 0.509804 0 0 0 0 0.964706 0 0 0 1 0"/>
<feBlend mode="overlay" in2="BackgroundImageFix" result="effect1_dropShadow_144_362"/>
<feBlend mode="normal" in="SourceGraphic" in2="effect1_dropShadow_144_362" result="shape"/>
</filter>
<filter id="filter7_d_144_362" x="515" y="59.8218" width="116.397" height="130.213" filterUnits="userSpaceOnUse" color-interpolation-filters="sRGB">
<feFlood flood-opacity="0" result="BackgroundImageFix"/>
<feColorMatrix in="SourceAlpha" type="matrix" values="0 0 0 0 0 0 0 0 0 0 0 0 0 0 0 0 0 0 127 0" result="hardAlpha"/>
<feMorphology radius="1" operator="dilate" in="SourceAlpha" result="effect1_dropShadow_144_362"/>
<feOffset/>
<feGaussianBlur stdDeviation="2"/>
<feColorMatrix type="matrix" values="0 0 0 0 0.231373 0 0 0 0 0.509804 0 0 0 0 0.964706 0 0 0 0.82 0"/>
<feBlend mode="normal" in2="BackgroundImageFix" result="effect1_dropShadow_144_362"/>
<feBlend mode="normal" in="SourceGraphic" in2="effect1_dropShadow_144_362" result="shape"/>
</filter>
<filter id="filter8_d_144_362" x="559.335" y="117.804" width="28.542" height="18.5" filterUnits="userSpaceOnUse" color-interpolation-filters="sRGB">
<feFlood flood-opacity="0" result="BackgroundImageFix"/>
<feColorMatrix in="SourceAlpha" type="matrix" values="0 0 0 0 0 0 0 0 0 0 0 0 0 0 0 0 0 0 127 0" result="hardAlpha"/>
<feOffset dy="2"/>
<feGaussianBlur stdDeviation="2"/>
<feComposite in2="hardAlpha" operator="out"/>
<feColorMatrix type="matrix" values="0 0 0 0 0.898039 0 0 0 0 0.905882 0 0 0 0 0.921569 0 0 0 1 0"/>
<feBlend mode="normal" in2="BackgroundImageFix" result="effect1_dropShadow_144_362"/>
<feBlend mode="normal" in="SourceGraphic" in2="effect1_dropShadow_144_362" result="shape"/>
</filter>
<filter id="filter9_d_144_362" x="516" y="419.752" width="114.397" height="128.213" filterUnits="userSpaceOnUse" color-interpolation-filters="sRGB">
<feFlood flood-opacity="0" result="BackgroundImageFix"/>
<feColorMatrix in="SourceAlpha" type="matrix" values="0 0 0 0 0 0 0 0 0 0 0 0 0 0 0 0 0 0 127 0" result="hardAlpha"/>
<feOffset/>
<feGaussianBlur stdDeviation="2"/>
<feComposite in2="hardAlpha" operator="out"/>
<feColorMatrix type="matrix" values="0 0 0 0 0.231373 0 0 0 0 0.509804 0 0 0 0 0.964706 0 0 0 1 0"/>
<feBlend mode="overlay" in2="BackgroundImageFix" result="effect1_dropShadow_144_362"/>
<feBlend mode="normal" in="SourceGraphic" in2="effect1_dropShadow_144_362" result="shape"/>
</filter>
<filter id="filter10_d_144_362" x="515" y="418.752" width="116.397" height="130.213" filterUnits="userSpaceOnUse" color-interpolation-filters="sRGB">
<feFlood flood-opacity="0" result="BackgroundImageFix"/>
<feColorMatrix in="SourceAlpha" type="matrix" values="0 0 0 0 0 0 0 0 0 0 0 0 0 0 0 0 0 0 127 0" result="hardAlpha"/>
<feMorphology radius="1" operator="dilate" in="SourceAlpha" result="effect1_dropShadow_144_362"/>
<feOffset/>
<feGaussianBlur stdDeviation="2"/>
<feColorMatrix type="matrix" values="0 0 0 0 0.231373 0 0 0 0 0.509804 0 0 0 0 0.964706 0 0 0 0.82 0"/>
<feBlend mode="normal" in2="BackgroundImageFix" result="effect1_dropShadow_144_362"/>
<feBlend mode="normal" in="SourceGraphic" in2="effect1_dropShadow_144_362" result="shape"/>
</filter>
<filter id="filter11_d_144_362" x="526.082" y="476.735" width="94.9067" height="21.5" filterUnits="userSpaceOnUse" color-interpolation-filters="sRGB">
<feFlood flood-opacity="0" result="BackgroundImageFix"/>
<feColorMatrix in="SourceAlpha" type="matrix" values="0 0 0 0 0 0 0 0 0 0 0 0 0 0 0 0 0 0 127 0" result="hardAlpha"/>
<feOffset dy="2"/>
<feGaussianBlur stdDeviation="2"/>
<feComposite in2="hardAlpha" operator="out"/>
<feColorMatrix type="matrix" values="0 0 0 0 0.898039 0 0 0 0 0.905882 0 0 0 0 0.921569 0 0 0 1 0"/>
<feBlend mode="normal" in2="BackgroundImageFix" result="effect1_dropShadow_144_362"/>
<feBlend mode="normal" in="SourceGraphic" in2="effect1_dropShadow_144_362" result="shape"/>
</filter>
<filter id="filter12_d_144_362" x="290.005" y="464.888" width="114.391" height="115.822" filterUnits="userSpaceOnUse" color-interpolation-filters="sRGB">
<feFlood flood-opacity="0" result="BackgroundImageFix"/>
<feColorMatrix in="SourceAlpha" type="matrix" values="0 0 0 0 0 0 0 0 0 0 0 0 0 0 0 0 0 0 127 0" result="hardAlpha"/>
<feOffset/>
<feGaussianBlur stdDeviation="2"/>
<feComposite in2="hardAlpha" operator="out"/>
<feColorMatrix type="matrix" values="0 0 0 0 0.231373 0 0 0 0 0.509804 0 0 0 0 0.964706 0 0 0 1 0"/>
<feBlend mode="overlay" in2="BackgroundImageFix" result="effect1_dropShadow_144_362"/>
<feBlend mode="normal" in="SourceGraphic" in2="effect1_dropShadow_144_362" result="shape"/>
</filter>
<filter id="filter13_d_144_362" x="289.005" y="463.888" width="116.391" height="117.822" filterUnits="userSpaceOnUse" color-interpolation-filters="sRGB">
<feFlood flood-opacity="0" result="BackgroundImageFix"/>
<feColorMatrix in="SourceAlpha" type="matrix" values="0 0 0 0 0 0 0 0 0 0 0 0 0 0 0 0 0 0 127 0" result="hardAlpha"/>
<feMorphology radius="1" operator="dilate" in="SourceAlpha" result="effect1_dropShadow_144_362"/>
<feOffset/>
<feGaussianBlur stdDeviation="2"/>
<feColorMatrix type="matrix" values="0 0 0 0 0.231373 0 0 0 0 0.509804 0 0 0 0 0.964706 0 0 0 0.82 0"/>
<feBlend mode="normal" in2="BackgroundImageFix" result="effect1_dropShadow_144_362"/>
<feBlend mode="normal" in="SourceGraphic" in2="effect1_dropShadow_144_362" result="shape"/>
</filter>
<filter id="filter14_d_144_362" x="325.765" y="516.24" width="45.1592" height="21.5" filterUnits="userSpaceOnUse" color-interpolation-filters="sRGB">
<feFlood flood-opacity="0" result="BackgroundImageFix"/>
<feColorMatrix in="SourceAlpha" type="matrix" values="0 0 0 0 0 0 0 0 0 0 0 0 0 0 0 0 0 0 127 0" result="hardAlpha"/>
<feOffset dy="2"/>
<feGaussianBlur stdDeviation="2"/>
<feComposite in2="hardAlpha" operator="out"/>
<feColorMatrix type="matrix" values="0 0 0 0 0.898039 0 0 0 0 0.905882 0 0 0 0 0.921569 0 0 0 1 0"/>
<feBlend mode="normal" in2="BackgroundImageFix" result="effect1_dropShadow_144_362"/>
<feBlend mode="normal" in="SourceGraphic" in2="effect1_dropShadow_144_362" result="shape"/>
</filter>
<filter id="filter15_d_144_362" x="85" y="419.752" width="114.397" height="128.213" filterUnits="userSpaceOnUse" color-interpolation-filters="sRGB">
<feFlood flood-opacity="0" result="BackgroundImageFix"/>
<feColorMatrix in="SourceAlpha" type="matrix" values="0 0 0 0 0 0 0 0 0 0 0 0 0 0 0 0 0 0 127 0" result="hardAlpha"/>
<feOffset/>
<feGaussianBlur stdDeviation="2"/>
<feComposite in2="hardAlpha" operator="out"/>
<feColorMatrix type="matrix" values="0 0 0 0 0.231373 0 0 0 0 0.509804 0 0 0 0 0.964706 0 0 0 1 0"/>
<feBlend mode="overlay" in2="BackgroundImageFix" result="effect1_dropShadow_144_362"/>
<feBlend mode="normal" in="SourceGraphic" in2="effect1_dropShadow_144_362" result="shape"/>
</filter>
<filter id="filter16_d_144_362" x="84" y="418.752" width="116.397" height="130.213" filterUnits="userSpaceOnUse" color-interpolation-filters="sRGB">
<feFlood flood-opacity="0" result="BackgroundImageFix"/>
<feColorMatrix in="SourceAlpha" type="matrix" values="0 0 0 0 0 0 0 0 0 0 0 0 0 0 0 0 0 0 127 0" result="hardAlpha"/>
<feMorphology radius="1" operator="dilate" in="SourceAlpha" result="effect1_dropShadow_144_362"/>
<feOffset/>
<feGaussianBlur stdDeviation="2"/>
<feColorMatrix type="matrix" values="0 0 0 0 0.231373 0 0 0 0 0.509804 0 0 0 0 0.964706 0 0 0 0.82 0"/>
<feBlend mode="normal" in2="BackgroundImageFix" result="effect1_dropShadow_144_362"/>
<feBlend mode="normal" in="SourceGraphic" in2="effect1_dropShadow_144_362" result="shape"/>
</filter>
<filter id="filter17_d_144_362" x="122.938" y="476.735" width="40.4912" height="18.71" filterUnits="userSpaceOnUse" color-interpolation-filters="sRGB">
<feFlood flood-opacity="0" result="BackgroundImageFix"/>
<feColorMatrix in="SourceAlpha" type="matrix" values="0 0 0 0 0 0 0 0 0 0 0 0 0 0 0 0 0 0 127 0" result="hardAlpha"/>
<feOffset dy="2"/>
<feGaussianBlur stdDeviation="2"/>
<feComposite in2="hardAlpha" operator="out"/>
<feColorMatrix type="matrix" values="0 0 0 0 0.898039 0 0 0 0 0.905882 0 0 0 0 0.921569 0 0 0 1 0"/>
<feBlend mode="normal" in2="BackgroundImageFix" result="effect1_dropShadow_144_362"/>
<feBlend mode="normal" in="SourceGraphic" in2="effect1_dropShadow_144_362" result="shape"/>
</filter>
<filter id="filter18_d_144_362" x="1" y="232.386" width="114.397" height="128.213" filterUnits="userSpaceOnUse" color-interpolation-filters="sRGB">
<feFlood flood-opacity="0" result="BackgroundImageFix"/>
<feColorMatrix in="SourceAlpha" type="matrix" values="0 0 0 0 0 0 0 0 0 0 0 0 0 0 0 0 0 0 127 0" result="hardAlpha"/>
<feOffset/>
<feGaussianBlur stdDeviation="2"/>
<feComposite in2="hardAlpha" operator="out"/>
<feColorMatrix type="matrix" values="0 0 0 0 0.231373 0 0 0 0 0.509804 0 0 0 0 0.964706 0 0 0 1 0"/>
<feBlend mode="overlay" in2="BackgroundImageFix" result="effect1_dropShadow_144_362"/>
<feBlend mode="normal" in="SourceGraphic" in2="effect1_dropShadow_144_362" result="shape"/>
</filter>
<filter id="filter19_d_144_362" x="0" y="231.386" width="116.397" height="130.213" filterUnits="userSpaceOnUse" color-interpolation-filters="sRGB">
<feFlood flood-opacity="0" result="BackgroundImageFix"/>
<feColorMatrix in="SourceAlpha" type="matrix" values="0 0 0 0 0 0 0 0 0 0 0 0 0 0 0 0 0 0 127 0" result="hardAlpha"/>
<feMorphology radius="1" operator="dilate" in="SourceAlpha" result="effect1_dropShadow_144_362"/>
<feOffset/>
<feGaussianBlur stdDeviation="2"/>
<feColorMatrix type="matrix" values="0 0 0 0 0.231373 0 0 0 0 0.509804 0 0 0 0 0.964706 0 0 0 0.82 0"/>
<feBlend mode="normal" in2="BackgroundImageFix" result="effect1_dropShadow_144_362"/>
<feBlend mode="normal" in="SourceGraphic" in2="effect1_dropShadow_144_362" result="shape"/>
</filter>
<filter id="filter20_d_144_362" x="24.9199" y="289.159" width="67.686" height="21.71" filterUnits="userSpaceOnUse" color-interpolation-filters="sRGB">
<feFlood flood-opacity="0" result="BackgroundImageFix"/>
<feColorMatrix in="SourceAlpha" type="matrix" values="0 0 0 0 0 0 0 0 0 0 0 0 0 0 0 0 0 0 127 0" result="hardAlpha"/>
<feOffset dy="2"/>
<feGaussianBlur stdDeviation="2"/>
<feComposite in2="hardAlpha" operator="out"/>
<feColorMatrix type="matrix" values="0 0 0 0 0.898039 0 0 0 0 0.905882 0 0 0 0 0.921569 0 0 0 1 0"/>
<feBlend mode="normal" in2="BackgroundImageFix" result="effect1_dropShadow_144_362"/>
<feBlend mode="normal" in="SourceGraphic" in2="effect1_dropShadow_144_362" result="shape"/>
</filter>
<filter id="filter21_d_144_362" x="584" y="232.386" width="114.397" height="128.213" filterUnits="userSpaceOnUse" color-interpolation-filters="sRGB">
<feFlood flood-opacity="0" result="BackgroundImageFix"/>
<feColorMatrix in="SourceAlpha" type="matrix" values="0 0 0 0 0 0 0 0 0 0 0 0 0 0 0 0 0 0 127 0" result="hardAlpha"/>
<feOffset/>
<feGaussianBlur stdDeviation="2"/>
<feComposite in2="hardAlpha" operator="out"/>
<feColorMatrix type="matrix" values="0 0 0 0 0.231373 0 0 0 0 0.509804 0 0 0 0 0.964706 0 0 0 1 0"/>
<feBlend mode="overlay" in2="BackgroundImageFix" result="effect1_dropShadow_144_362"/>
<feBlend mode="normal" in="SourceGraphic" in2="effect1_dropShadow_144_362" result="shape"/>
</filter>
<filter id="filter22_d_144_362" x="583" y="231.386" width="116.397" height="130.213" filterUnits="userSpaceOnUse" color-interpolation-filters="sRGB">
<feFlood flood-opacity="0" result="BackgroundImageFix"/>
<feColorMatrix in="SourceAlpha" type="matrix" values="0 0 0 0 0 0 0 0 0 0 0 0 0 0 0 0 0 0 127 0" result="hardAlpha"/>
<feMorphology radius="1" operator="dilate" in="SourceAlpha" result="effect1_dropShadow_144_362"/>
<feOffset/>
<feGaussianBlur stdDeviation="2"/>
<feColorMatrix type="matrix" values="0 0 0 0 0.231373 0 0 0 0 0.509804 0 0 0 0 0.964706 0 0 0 0.82 0"/>
<feBlend mode="normal" in2="BackgroundImageFix" result="effect1_dropShadow_144_362"/>
<feBlend mode="normal" in="SourceGraphic" in2="effect1_dropShadow_144_362" result="shape"/>
</filter>
<filter id="filter23_d_144_362" x="592.294" y="289.369" width="98.0044" height="18.71" filterUnits="userSpaceOnUse" color-interpolation-filters="sRGB">
<feFlood flood-opacity="0" result="BackgroundImageFix"/>
<feColorMatrix in="SourceAlpha" type="matrix" values="0 0 0 0 0 0 0 0 0 0 0 0 0 0 0 0 0 0 127 0" result="hardAlpha"/>
<feOffset dy="2"/>
<feGaussianBlur stdDeviation="2"/>
<feComposite in2="hardAlpha" operator="out"/>
<feColorMatrix type="matrix" values="0 0 0 0 0.898039 0 0 0 0 0.905882 0 0 0 0 0.921569 0 0 0 1 0"/>
<feBlend mode="normal" in2="BackgroundImageFix" result="effect1_dropShadow_144_362"/>
<feBlend mode="normal" in="SourceGraphic" in2="effect1_dropShadow_144_362" result="shape"/>
</filter>
<filter id="filter24_d_144_362" x="85" y="60.8218" width="114.397" height="128.213" filterUnits="userSpaceOnUse" color-interpolation-filters="sRGB">
<feFlood flood-opacity="0" result="BackgroundImageFix"/>
<feColorMatrix in="SourceAlpha" type="matrix" values="0 0 0 0 0 0 0 0 0 0 0 0 0 0 0 0 0 0 127 0" result="hardAlpha"/>
<feOffset/>
<feGaussianBlur stdDeviation="2"/>
<feComposite in2="hardAlpha" operator="out"/>
<feColorMatrix type="matrix" values="0 0 0 0 0.231373 0 0 0 0 0.509804 0 0 0 0 0.964706 0 0 0 1 0"/>
<feBlend mode="overlay" in2="BackgroundImageFix" result="effect1_dropShadow_144_362"/>
<feBlend mode="normal" in="SourceGraphic" in2="effect1_dropShadow_144_362" result="shape"/>
</filter>
<filter id="filter25_d_144_362" x="84" y="59.8218" width="116.397" height="130.213" filterUnits="userSpaceOnUse" color-interpolation-filters="sRGB">
<feFlood flood-opacity="0" result="BackgroundImageFix"/>
<feColorMatrix in="SourceAlpha" type="matrix" values="0 0 0 0 0 0 0 0 0 0 0 0 0 0 0 0 0 0 127 0" result="hardAlpha"/>
<feMorphology radius="1" operator="dilate" in="SourceAlpha" result="effect1_dropShadow_144_362"/>
<feOffset/>
<feGaussianBlur stdDeviation="2"/>
<feColorMatrix type="matrix" values="0 0 0 0 0.231373 0 0 0 0 0.509804 0 0 0 0 0.964706 0 0 0 0.82 0"/>
<feBlend mode="normal" in2="BackgroundImageFix" result="effect1_dropShadow_144_362"/>
<feBlend mode="normal" in="SourceGraphic" in2="effect1_dropShadow_144_362" result="shape"/>
</filter>
<filter id="filter26_d_144_362" x="119.214" y="117.594" width="47.2729" height="18.9199" filterUnits="userSpaceOnUse" color-interpolation-filters="sRGB">
<feFlood flood-opacity="0" result="BackgroundImageFix"/>
<feColorMatrix in="SourceAlpha" type="matrix" values="0 0 0 0 0 0 0 0 0 0 0 0 0 0 0 0 0 0 127 0" result="hardAlpha"/>
<feOffset dy="2"/>
<feGaussianBlur stdDeviation="2"/>
<feComposite in2="hardAlpha" operator="out"/>
<feColorMatrix type="matrix" values="0 0 0 0 0.898039 0 0 0 0 0.905882 0 0 0 0 0.921569 0 0 0 1 0"/>
<feBlend mode="normal" in2="BackgroundImageFix" result="effect1_dropShadow_144_362"/>
<feBlend mode="normal" in="SourceGraphic" in2="effect1_dropShadow_144_362" result="shape"/>
</filter>
<filter id="filter27_d_144_362" x="344.02" y="120.364" width="11" height="90.396" filterUnits="userSpaceOnUse" color-interpolation-filters="sRGB">
<feFlood flood-opacity="0" result="BackgroundImageFix"/>
<feColorMatrix in="SourceAlpha" type="matrix" values="0 0 0 0 0 0 0 0 0 0 0 0 0 0 0 0 0 0 127 0" result="hardAlpha"/>
<feOffset/>
<feGaussianBlur stdDeviation="2"/>
<feComposite in2="hardAlpha" operator="out"/>
<feColorMatrix type="matrix" values="0 0 0 0 0.231373 0 0 0 0 0.509804 0 0 0 0 0.964706 0 0 0 1 0"/>
<feBlend mode="overlay" in2="BackgroundImageFix" result="effect1_dropShadow_144_362"/>
<feBlend mode="normal" in="SourceGraphic" in2="effect1_dropShadow_144_362" result="shape"/>
</filter>
<filter id="filter28_d_144_362" x="344.02" y="379.968" width="11" height="90.396" filterUnits="userSpaceOnUse" color-interpolation-filters="sRGB">
<feFlood flood-opacity="0" result="BackgroundImageFix"/>
<feColorMatrix in="SourceAlpha" type="matrix" values="0 0 0 0 0 0 0 0 0 0 0 0 0 0 0 0 0 0 127 0" result="hardAlpha"/>
<feOffset/>
<feGaussianBlur stdDeviation="2"/>
<feComposite in2="hardAlpha" operator="out"/>
<feColorMatrix type="matrix" values="0 0 0 0 0.231373 0 0 0 0 0.509804 0 0 0 0 0.964706 0 0 0 1 0"/>
<feBlend mode="overlay" in2="BackgroundImageFix" result="effect1_dropShadow_144_362"/>
<feBlend mode="normal" in="SourceGraphic" in2="effect1_dropShadow_144_362" result="shape"/>
</filter>
<filter id="filter29_d_144_362" x="406.02" y="151.968" width="126.436" height="91.9012" filterUnits="userSpaceOnUse" color-interpolation-filters="sRGB">
<feFlood flood-opacity="0" result="BackgroundImageFix"/>
<feColorMatrix in="SourceAlpha" type="matrix" values="0 0 0 0 0 0 0 0 0 0 0 0 0 0 0 0 0 0 127 0" result="hardAlpha"/>
<feOffset/>
<feGaussianBlur stdDeviation="2"/>
<feComposite in2="hardAlpha" operator="out"/>
<feColorMatrix type="matrix" values="0 0 0 0 0.231373 0 0 0 0 0.509804 0 0 0 0 0.964706 0 0 0 1 0"/>
<feBlend mode="overlay" in2="BackgroundImageFix" result="effect1_dropShadow_144_362"/>
<feBlend mode="normal" in="SourceGraphic" in2="effect1_dropShadow_144_362" result="shape"/>
</filter>
<filter id="filter30_d_144_362" x="400.476" y="354.007" width="130.544" height="103.126" filterUnits="userSpaceOnUse" color-interpolation-filters="sRGB">
<feFlood flood-opacity="0" result="BackgroundImageFix"/>
<feColorMatrix in="SourceAlpha" type="matrix" values="0 0 0 0 0 0 0 0 0 0 0 0 0 0 0 0 0 0 127 0" result="hardAlpha"/>
<feOffset/>
<feGaussianBlur stdDeviation="2"/>
<feComposite in2="hardAlpha" operator="out"/>
<feColorMatrix type="matrix" values="0 0 0 0 0.231373 0 0 0 0 0.509804 0 0 0 0 0.964706 0 0 0 1 0"/>
<feBlend mode="overlay" in2="BackgroundImageFix" result="effect1_dropShadow_144_362"/>
<feBlend mode="normal" in="SourceGraphic" in2="effect1_dropShadow_144_362" result="shape"/>
</filter>
<filter id="filter31_d_144_362" x="180.452" y="151.968" width="113.568" height="91.8246" filterUnits="userSpaceOnUse" color-interpolation-filters="sRGB">
<feFlood flood-opacity="0" result="BackgroundImageFix"/>
<feColorMatrix in="SourceAlpha" type="matrix" values="0 0 0 0 0 0 0 0 0 0 0 0 0 0 0 0 0 0 127 0" result="hardAlpha"/>
<feOffset/>
<feGaussianBlur stdDeviation="2"/>
<feComposite in2="hardAlpha" operator="out"/>
<feColorMatrix type="matrix" values="0 0 0 0 0.231373 0 0 0 0 0.509804 0 0 0 0 0.964706 0 0 0 1 0"/>
<feBlend mode="overlay" in2="BackgroundImageFix" result="effect1_dropShadow_144_362"/>
<feBlend mode="normal" in="SourceGraphic" in2="effect1_dropShadow_144_362" result="shape"/>
</filter>
<filter id="filter32_d_144_362" x="182.02" y="354.007" width="118.65" height="101.931" filterUnits="userSpaceOnUse" color-interpolation-filters="sRGB">
<feFlood flood-opacity="0" result="BackgroundImageFix"/>
<feColorMatrix in="SourceAlpha" type="matrix" values="0 0 0 0 0 0 0 0 0 0 0 0 0 0 0 0 0 0 127 0" result="hardAlpha"/>
<feOffset/>
<feGaussianBlur stdDeviation="2"/>
<feComposite in2="hardAlpha" operator="out"/>
<feColorMatrix type="matrix" values="0 0 0 0 0.231373 0 0 0 0 0.509804 0 0 0 0 0.964706 0 0 0 1 0"/>
<feBlend mode="overlay" in2="BackgroundImageFix" result="effect1_dropShadow_144_362"/>
<feBlend mode="normal" in="SourceGraphic" in2="effect1_dropShadow_144_362" result="shape"/>
</filter>
<filter id="filter33_d_144_362" x="113.02" y="293.057" width="163" height="11" filterUnits="userSpaceOnUse" color-interpolation-filters="sRGB">
<feFlood flood-opacity="0" result="BackgroundImageFix"/>
<feColorMatrix in="SourceAlpha" type="matrix" values="0 0 0 0 0 0 0 0 0 0 0 0 0 0 0 0 0 0 127 0" result="hardAlpha"/>
<feOffset/>
<feGaussianBlur stdDeviation="2"/>
<feComposite in2="hardAlpha" operator="out"/>
<feColorMatrix type="matrix" values="0 0 0 0 0.231373 0 0 0 0 0.509804 0 0 0 0 0.964706 0 0 0 1 0"/>
<feBlend mode="overlay" in2="BackgroundImageFix" result="effect1_dropShadow_144_362"/>
<feBlend mode="normal" in="SourceGraphic" in2="effect1_dropShadow_144_362" result="shape"/>
</filter>
<filter id="filter34_d_144_362" x="424.008" y="291.958" width="169.018" height="11" filterUnits="userSpaceOnUse" color-interpolation-filters="sRGB">
<feFlood flood-opacity="0" result="BackgroundImageFix"/>
<feColorMatrix in="SourceAlpha" type="matrix" values="0 0 0 0 0 0 0 0 0 0 0 0 0 0 0 0 0 0 127 0" result="hardAlpha"/>
<feOffset/>
<feGaussianBlur stdDeviation="2"/>
<feComposite in2="hardAlpha" operator="out"/>
<feColorMatrix type="matrix" values="0 0 0 0 0.231373 0 0 0 0 0.509804 0 0 0 0 0.964706 0 0 0 1 0"/>
<feBlend mode="overlay" in2="BackgroundImageFix" result="effect1_dropShadow_144_362"/>
<feBlend mode="normal" in="SourceGraphic" in2="effect1_dropShadow_144_362" result="shape"/>
</filter>
</defs>
</svg>
