<svg width="51" height="30" viewBox="0 0 51 30" fill="none" xmlns="http://www.w3.org/2000/svg">
<path d="M49.0124 17.7341L47.2386 17.1576C47.5365 16.3235 47.6873 15.4882 47.6873 14.6704C47.6873 13.8407 47.5389 13.0047 47.2461 12.1808L49.0124 11.6067C49.5594 11.4289 49.9508 11.1418 50.1142 10.7983C50.2777 10.4548 50.1938 10.096 49.8779 9.78808L45.0476 5.07808C44.7317 4.77012 44.2218 4.5498 43.6116 4.45779C43.0014 4.36579 42.3642 4.41298 41.8171 4.59081L40.0493 5.16538C37.8164 4.05947 35.1885 3.20357 32.3911 2.67104V1.52713C32.3911 0.793027 31.3302 0.195801 30.0262 0.195801H20.3655C19.0615 0.195801 18.0006 0.793027 18.0006 1.52713V2.6711C15.2181 3.20148 12.5938 4.05851 10.3526 5.16878L8.57454 4.59081C8.0274 4.41298 7.3901 4.36574 6.77996 4.45779C6.16982 4.54985 5.65992 4.77012 5.34403 5.07808L0.513659 9.78808C0.197773 10.096 0.113946 10.4548 0.277373 10.7983C0.440801 11.1418 0.832161 11.4289 1.3792 11.6067L3.15295 12.1832C2.85528 13.0173 2.70443 13.8525 2.70443 14.6704C2.70443 15.5 2.85277 16.336 3.14561 17.16L1.3793 17.7341C0.250001 18.1011 -0.13824 18.9169 0.513659 19.5527L5.34403 24.2627C5.99603 24.8984 7.44514 25.1171 8.57454 24.75L10.3422 24.1754C12.5752 25.2813 15.203 26.1372 18.0006 26.6698V27.8137C18.0006 28.5478 19.0615 29.145 20.3655 29.145H30.0262C31.3302 29.145 32.3911 28.5478 32.3911 27.8137V26.6697C35.1737 26.1393 37.798 25.2823 40.0392 24.1721L41.8172 24.75C42.9464 25.1171 44.3957 24.8984 45.0477 24.2627L49.878 19.5527C50.5299 18.9169 50.1417 18.1011 49.0124 17.7341ZM48.5707 19.1279L43.7403 23.8378C43.5046 24.0678 42.9804 24.1468 42.5719 24.014L40.3185 23.2816C40.0322 23.1886 39.6715 23.2113 39.4287 23.3377C37.125 24.5372 34.3531 25.4422 31.413 25.9549C31.0971 26.0101 30.8816 26.1746 30.8816 26.3608V27.8137C30.8816 28.0792 30.4979 28.2952 30.0262 28.2952H20.3655C19.8938 28.2952 19.5101 28.0792 19.5101 27.8137V26.3609C19.5101 26.1746 19.2946 26.0101 18.9788 25.955C16.0206 25.4391 13.2453 24.5352 10.9528 23.3411C10.8098 23.2666 10.6257 23.2281 10.4401 23.2281C10.3107 23.2281 10.1805 23.2468 10.0629 23.285L7.8198 24.014C7.41123 24.1468 6.88713 24.0677 6.65135 23.8378L1.82098 19.1279C1.5852 18.8979 1.72568 18.6028 2.13405 18.47L4.37534 17.7415C4.66154 17.6485 4.80695 17.4615 4.7342 17.28C4.38892 16.4185 4.21392 15.5405 4.21392 14.6704C4.21392 13.815 4.39154 12.9378 4.74194 12.0632C4.8146 11.8817 4.66919 11.6947 4.38309 11.6017L2.13405 10.8708C1.9362 10.8065 1.79471 10.7026 1.73554 10.5784C1.67647 10.4541 1.70676 10.3243 1.82098 10.213L6.65135 5.50297C6.76557 5.39159 6.95003 5.31188 7.17082 5.27863C7.3914 5.24532 7.62205 5.26242 7.8199 5.32672L10.0733 6.05912C10.3597 6.15226 10.7203 6.12948 10.9631 6.00309C13.2669 4.8036 16.0387 3.89858 18.9788 3.38582C19.2947 3.3307 19.5102 3.16618 19.5102 2.97997V1.52713C19.5102 1.2616 19.8939 1.04558 20.3656 1.04558H30.0263C30.498 1.04558 30.8817 1.2616 30.8817 1.52713V2.97997C30.8817 3.16618 31.0972 3.3307 31.413 3.38582C34.3711 3.9017 37.1464 4.80558 39.439 5.99969C39.6817 6.12614 40.0425 6.14886 40.3289 6.05578L42.572 5.32672C42.7699 5.26242 43.0005 5.24532 43.2211 5.27863C43.4418 5.31194 43.6262 5.39159 43.7406 5.50297L48.5709 10.213C48.6851 10.3243 48.7155 10.4541 48.6564 10.5784C48.5972 10.7026 48.4557 10.8065 48.2579 10.8708L46.0166 11.5992C45.7304 11.6923 45.5849 11.8793 45.6577 12.0607C46.003 12.9222 46.178 13.8002 46.178 14.6704C46.178 15.5259 46.0004 16.4031 45.65 17.2776C45.5773 17.4591 45.7227 17.646 46.0088 17.739L48.2579 18.47C48.6661 18.6028 48.8066 18.8979 48.5707 19.1279Z" fill="#3B82F6" stroke="#3B82F6" stroke-width="0.391389"/>
<path d="M25.1961 6.08765C16.7894 6.08765 9.9502 9.93789 9.9502 14.6704C9.9502 19.403 16.7894 23.2532 25.1961 23.2532C33.6027 23.2532 40.4419 19.403 40.4419 14.6704C40.4419 9.93789 33.6027 6.08765 25.1961 6.08765ZM25.1961 22.4034C17.6218 22.4034 11.4597 18.9344 11.4597 14.6704C11.4597 10.4065 17.6218 6.93743 25.1961 6.93743C32.7703 6.93743 38.9324 10.4065 38.9324 14.6704C38.9324 18.9344 32.7703 22.4034 25.1961 22.4034Z" fill="#3B82F6" stroke="#3B82F6" stroke-width="0.391389"/>
<path d="M28.0134 12.4326H25.1957C24.7788 12.4326 24.4409 12.6229 24.4409 12.8575V16.4832C24.4409 16.7179 24.7788 16.9081 25.1957 16.9081C25.6125 16.9081 25.9504 16.7179 25.9504 16.4832V15.5485H28.0134C29.5394 15.5485 30.7808 14.8496 30.7808 13.9905C30.7808 13.1315 29.5394 12.4326 28.0134 12.4326ZM28.0134 14.6987H25.9504V13.2824H28.0134C28.707 13.2824 29.2713 13.6 29.2713 13.9905C29.2713 14.3811 28.707 14.6987 28.0134 14.6987Z" fill="#3B82F6" stroke="#3B82F6" stroke-width="0.391389"/>
<path d="M21.0724 12.7083C20.9619 12.5425 20.6804 12.4326 20.3658 12.4326H19.5607C19.2462 12.4326 18.9645 12.5425 18.8541 12.7083L16.4389 16.3341C16.2925 16.5538 16.4903 16.7987 16.8806 16.8811C17.2708 16.9635 17.7059 16.8522 17.8523 16.6325L18.2723 16.0017H21.6541L22.0742 16.6324C22.1879 16.803 22.4755 16.9082 22.781 16.9082C22.869 16.9082 22.9586 16.8995 23.0458 16.8811C23.4361 16.7987 23.6339 16.5538 23.4875 16.3341L21.0724 12.7083ZM18.8384 15.1519L19.9633 13.4633L21.0881 15.1519H18.8384Z" fill="#3B82F6" stroke="#3B82F6" stroke-width="0.391389"/>
<path d="M32.4418 12.4326C32.0249 12.4326 31.687 12.6229 31.687 12.8575V16.4832C31.687 16.7179 32.0249 16.9081 32.4418 16.9081C32.8586 16.9081 33.1965 16.7179 33.1965 16.4832V12.8575C33.1965 12.6229 32.8586 12.4326 32.4418 12.4326Z" fill="#3B82F6" stroke="#3B82F6" stroke-width="0.391389"/>
<path d="M30.5946 5.14156C31.1184 5.23555 31.6406 5.34472 32.1465 5.46595C32.2429 5.48907 32.3431 5.5 32.4417 5.5C32.7352 5.5 33.0143 5.40301 33.1365 5.24144C33.2997 5.02554 33.1212 4.77599 32.7377 4.6841C32.1885 4.55249 31.6217 4.43398 31.0529 4.33195C30.6559 4.26068 30.2312 4.38418 30.1046 4.60773C29.9782 4.83128 30.1975 5.0703 30.5946 5.14156Z" fill="#3B82F6" stroke="#3B82F6" stroke-width="0.391389"/>
<path d="M9.59276 19.4522C9.39311 19.2462 8.93452 19.1703 8.56872 19.2827C8.20282 19.3951 8.06797 19.6532 8.26763 19.8592C8.5808 20.1823 8.92748 20.5002 9.29801 20.804C9.44433 20.9239 9.68051 20.9884 9.92082 20.9884C10.068 20.9884 10.2168 20.9642 10.3474 20.9137C10.6911 20.7809 10.7783 20.5164 10.5423 20.3229C10.2009 20.043 9.88138 19.75 9.59276 19.4522Z" fill="#3B82F6" stroke="#3B82F6" stroke-width="0.391389"/>
<path d="M23.6499 24.6323C19.6056 24.4361 15.7666 23.4495 12.8403 21.854C12.5408 21.6908 12.063 21.6951 11.7731 21.8637C11.4832 22.0323 11.4907 22.3013 11.7902 22.4645C14.9652 24.1955 19.1311 25.266 23.5203 25.4789C23.5423 25.48 23.5642 25.4805 23.5859 25.4805C23.9734 25.4805 24.3031 25.3134 24.337 25.0921C24.3727 24.8584 24.0651 24.6525 23.6499 24.6323Z" fill="#3B82F6" stroke="#3B82F6" stroke-width="0.391389"/>
<path d="M36.0566 5.70743C35.7125 5.57503 35.2428 5.62477 35.0076 5.81847C34.7725 6.01222 34.8608 6.27661 35.2049 6.40901C38.7113 7.75806 41.2478 9.76553 42.347 12.0615C42.4378 12.2511 42.7425 12.3759 43.0753 12.3759C43.1403 12.3759 43.2064 12.3712 43.2721 12.3612C43.6746 12.3001 43.9129 12.067 43.8045 11.8404C42.6118 9.34885 39.8602 7.17081 36.0566 5.70743Z" fill="#3B82F6" stroke="#3B82F6" stroke-width="0.391389"/>
</svg>
