<svg width="51" height="30" viewBox="0 0 51 30" fill="none" xmlns="http://www.w3.org/2000/svg">
<path d="M49.5813 4.84653C48.8858 4.08955 47.6846 3.43774 46.1612 2.87583C43.8684 2.03359 40.8106 1.37624 37.2343 0.91435C33.6578 0.45399 29.5585 0.195312 25.1954 0.195312C18.5461 0.197348 12.5152 0.791712 7.99917 1.79962C5.74109 2.30617 3.85194 2.91688 2.46307 3.64926C1.77079 4.01565 1.20546 4.41494 0.809534 4.84658C0.414559 5.27822 0.194359 5.74367 0.195316 6.21997V23.1195C0.194359 23.5957 0.414559 24.0617 0.809534 24.4929C1.50504 25.2498 2.70622 25.9016 4.2297 26.4641C6.52256 27.3063 9.58014 27.9637 13.1567 28.4256C16.733 28.8859 20.8324 29.1441 25.1954 29.1445C31.8459 29.1419 37.8754 28.5482 42.3916 27.5397C44.6495 27.0332 46.5387 26.423 47.9276 25.6901C48.62 25.3242 49.1852 24.9249 49.5812 24.4928C49.9762 24.0617 50.1964 23.5957 50.1953 23.1194V6.21992C50.1965 5.74361 49.9763 5.27816 49.5813 4.84653ZM46.7471 23.1195C46.746 23.3622 46.6408 23.5988 46.4162 23.8456C46.0255 24.2752 45.2388 24.7371 44.0419 25.1769C42.2527 25.8384 39.5746 26.4354 36.3282 26.852C33.0816 27.2697 29.2686 27.514 25.1952 27.5135C18.9898 27.5161 13.3821 26.9434 9.47482 26.0657C7.51943 25.6295 6.00039 25.1173 5.03471 24.6036C4.54864 24.347 4.19921 24.0914 3.97459 23.8456C3.74984 23.5987 3.64465 23.3622 3.64357 23.1194V20.3285C5.63805 21.1908 8.43861 21.8795 11.7881 22.3886C15.6499 22.9721 20.2505 23.3073 25.1952 23.3078C31.7893 23.3062 37.767 22.7145 42.2071 21.723C43.992 21.3226 45.5177 20.854 46.7469 20.3208V23.1195H46.7471ZM46.7471 18.3563C46.5019 18.6052 46.1514 18.8547 45.6783 19.1066C44.1506 19.9206 41.3847 20.6868 37.8159 21.2236C34.2482 21.7635 29.8917 22.0848 25.1954 22.0843C18.9346 22.0858 13.2737 21.511 9.29048 20.6171C7.2972 20.1721 5.73249 19.6481 4.71266 19.1066C4.2395 18.8547 3.88899 18.6052 3.64369 18.3569V14.6956C5.63817 15.5578 8.43873 16.2465 11.7882 16.7556C15.65 17.3386 20.2507 17.6737 25.1954 17.6743C31.7894 17.6727 37.7671 17.0811 42.2072 16.0895C43.9922 15.6891 45.5178 15.2211 46.7471 14.6879V18.3563ZM46.7471 12.7233C46.5019 12.9722 46.1514 13.2216 45.6783 13.4731C44.1506 14.287 41.3847 15.0538 37.8159 15.5901C34.2482 16.13 29.8917 16.4513 25.1954 16.4508C18.9346 16.4523 13.2737 15.8775 9.29048 14.984C7.2972 14.539 5.73249 14.0146 4.71266 13.4731C4.2395 13.2216 3.88899 12.9722 3.64369 12.7233V9.06203C5.63817 9.92474 8.43873 10.613 11.7882 11.1226C15.65 11.7061 20.2507 12.0412 25.1954 12.0412C31.7894 12.0397 37.7671 11.4484 42.2072 10.4564C43.9922 10.0561 45.5178 9.58803 46.7471 9.05479V12.7233ZM46.7471 7.08975C46.5019 7.3387 46.1514 7.58862 45.6783 7.84011C44.1506 8.65459 41.3847 9.42078 37.8159 9.95765C34.2482 10.4975 29.8917 10.8188 25.1954 10.8183C18.9346 10.8198 13.2737 10.245 9.29048 9.35107C7.2972 8.90558 5.73249 8.38155 4.71266 7.84017C4.2395 7.58867 3.88899 7.33876 3.64369 7.09032V6.21992C3.64489 5.97713 3.75008 5.74107 3.97471 5.49421C4.36538 5.0641 5.15198 4.60277 6.34886 4.16243C8.1382 3.5009 10.8161 2.90404 14.0626 2.48784C17.3092 2.06955 21.122 1.8258 25.1954 1.82631C31.4009 1.82371 37.0086 2.39653 40.9159 3.27411C42.8712 3.70982 44.3892 4.22202 45.356 4.73627C45.8421 4.99285 46.1914 5.24797 46.4162 5.49426C46.6407 5.74112 46.7459 5.97718 46.7471 6.21997V7.08975Z" fill="#3B82F6" stroke="#3B82F6" stroke-width="0.390625"/>
</svg>
