<svg width="51" height="30" viewBox="0 0 51 30" fill="none" xmlns="http://www.w3.org/2000/svg">
<path d="M47.7835 0.543289V0.5H3.15408V0.543289C2.47281 0.589487 1.83579 0.798162 1.35175 1.13369C0.867722 1.46922 0.566689 1.9108 0.500043 2.38305V22.7142C0.497214 23.0718 0.633867 23.4233 0.895547 23.7315C1.13211 24.0539 1.49711 24.3224 1.94725 24.5053C2.39739 24.6882 2.91376 24.7777 3.43509 24.7632H19.505V27.577H16.4451C16.1081 27.5975 15.7944 27.7049 15.5659 27.8778C15.3373 28.0508 15.2106 28.2768 15.2106 28.5113C15.2106 28.7458 15.3373 28.9718 15.5659 29.1448C15.7944 29.3177 16.1081 29.4251 16.4451 29.4456H34.4925C34.6795 29.457 34.8678 29.4413 35.0455 29.3996C35.2233 29.3578 35.3865 29.2908 35.5249 29.203C35.6633 29.1151 35.7739 29.0082 35.8495 28.8891C35.9251 28.7701 35.9641 28.6414 35.9641 28.5113C35.9641 28.3812 35.9251 28.2525 35.8495 28.1335C35.7739 28.0144 35.6633 27.9075 35.5249 27.8196C35.3865 27.7318 35.2233 27.6648 35.0455 27.6231C34.8678 27.5813 34.6795 27.5656 34.4925 27.577H31.4326V24.7632H47.5337C48.0566 24.7782 48.5746 24.689 49.0266 24.5061C49.4785 24.3233 49.8454 24.0545 50.0837 23.7315C50.3454 23.4226 50.4887 23.0724 50.5 22.7142V2.38305C50.4196 1.90713 50.1059 1.46476 49.6115 1.12989C49.117 0.795025 48.4718 0.587953 47.7835 0.543289ZM47.7835 2.54178V22.7142C47.7835 22.8297 47.7107 22.8802 47.5337 22.8802H3.39346C3.22693 22.8802 3.15408 22.8297 3.15408 22.7142V2.38305H47.7835V2.54899V2.54178Z" fill="#3B82F6" stroke="#3B82F6"/>
</svg>
