<svg width="64" height="64" viewBox="0 0 64 64" fill="none" xmlns="http://www.w3.org/2000/svg">
<path d="M14 48L28 34L38 42L50 20" stroke="#7C5CFF" stroke-width="3"/>
<path d="M14 51C15.6569 51 17 49.6569 17 48C17 46.3431 15.6569 45 14 45C12.3431 45 11 46.3431 11 48C11 49.6569 12.3431 51 14 51Z" stroke="#7C5CFF" stroke-width="3"/>
<path d="M28 37C29.6569 37 31 35.6569 31 34C31 32.3431 29.6569 31 28 31C26.3431 31 25 32.3431 25 34C25 35.6569 26.3431 37 28 37Z" stroke="#7C5CFF" stroke-width="3"/>
<path d="M38 45C39.6569 45 41 43.6569 41 42C41 40.3431 39.6569 39 38 39C36.3431 39 35 40.3431 35 42C35 43.6569 36.3431 45 38 45Z" stroke="#7C5CFF" stroke-width="3"/>
<path d="M50 23C51.6569 23 53 21.6569 53 20C53 18.3431 51.6569 17 50 17C48.3431 17 47 18.3431 47 20C47 21.6569 48.3431 23 50 23Z" stroke="#7C5CFF" stroke-width="3"/>
</svg>
